<?xml version="1.0" encoding="utf-8"?>
<!-- Generator: Adobe Illustrator 22.0.1, SVG Export Plug-In . SVG Version: 6.00 Build 0)  -->
<svg version="1.1" id="Layer_1" xmlns="http://www.w3.org/2000/svg" xmlns:xlink="http://www.w3.org/1999/xlink" x="0px" y="0px"
	 viewBox="0 0 362.8 566.9" style="enable-background:new 0 0 362.8 566.9;" xml:space="preserve">
<style type="text/css">
	.st0{fill:none;stroke:#000000;stroke-width:0;stroke-linecap:round;stroke-linejoin:round;}
	.st1{fill:none;stroke:#000000;stroke-width:0.25;stroke-miterlimit:10;}
</style>
<g>
	<g>
		<g>
			<rect y="0" class="st0" width="100.8" height="82.8"/>
			<rect x="0.3" y="0.3" class="st0" width="100.3" height="82.3"/>
		</g>
	</g>
</g>
<g>
	<g>
		<g>
			<path class="st0" d="M4.2,7.6c0,1.8,1.6,3.2,3.4,3.2c1.8,0,3.3-1.5,3.3-3.3S9.4,4.2,7.6,4.2C5.8,4.2,4.2,5.8,4.2,7.6z"/>
			<path class="st0" d="M4,7.6c0,2,1.6,3.6,3.6,3.6s3.6-1.6,3.6-3.6S9.6,4,7.6,4S4,5.6,4,7.6z"/>
		</g>
	</g>
</g>
<g>
	<g>
		<g>
			<path class="st0" d="M90.3,7.5c0,1.8,1.5,3.3,3.3,3.3c1.8,0,3.3-1.5,3.3-3.3s-1.5-3.3-3.3-3.3C91.8,4.2,90.3,5.7,90.3,7.5z"/>
			<path class="st0" d="M90,7.6c0,2,1.6,3.6,3.6,3.6s3.6-1.6,3.6-3.6S95.6,4,93.6,4S90,5.6,90,7.6z"/>
		</g>
	</g>
</g>
<g>
	<g>
		<g>
			<path class="st0" d="M90.3,75.5c0,1.8,1.5,3.3,3.3,3.3c1.8,0,3.3-1.5,3.3-3.3s-1.5-3.3-3.3-3.3C91.8,72.2,90.3,73.7,90.3,75.5z"
				/>
			<path class="st0" d="M90,75.6c0,2,1.6,3.6,3.6,3.6s3.6-1.6,3.6-3.6S95.6,72,93.6,72S90,73.6,90,75.6z"/>
		</g>
	</g>
</g>
<g>
	<g>
		<g>
			<path class="st0" d="M4.3,75.5c0,1.8,1.5,3.3,3.3,3.3c1.8,0,3.3-1.5,3.3-3.3s-1.5-3.3-3.3-3.3C5.8,72.2,4.3,73.7,4.3,75.5z"/>
			<path class="st0" d="M4,75.6c0,2,1.6,3.6,3.6,3.6s3.6-1.6,3.6-3.6S9.6,72,7.6,72S4,73.6,4,75.6z"/>
		</g>
	</g>
</g>
<g>
	<g>
		<g>
			
				<ellipse transform="matrix(0.7071 -0.7071 0.7071 0.7071 -76.0791 60.5287)" class="st0" cx="35" cy="122.1" rx="33.1" ry="33.1"/>
			
				<ellipse transform="matrix(0.7071 -0.7071 0.7071 0.7071 -76.0791 60.5287)" class="st0" cx="35" cy="122.1" rx="32.9" ry="32.9"/>
		</g>
	</g>
</g>
<g>
	<g>
		<g>
			<rect x="101.1" y="0.1" class="st0" width="100.3" height="82.3"/>
			<rect x="100.9" y="-0.2" class="st0" width="100.8" height="82.8"/>
		</g>
	</g>
</g>
<g>
	<g>
		<g>
			<path class="st0" d="M106.3,7.6c0,1.3,1,2.4,2.3,2.4c1.3,0,2.3-1.1,2.3-2.4c0-1.3-1-2.4-2.3-2.4C107.3,5.2,106.3,6.3,106.3,7.6z"
				/>
			<path class="st0" d="M106,7.6c0,1.5,1.1,2.7,2.6,2.7c1.4,0,2.6-1.2,2.6-2.7s-1.2-2.7-2.6-2.7C107.2,4.9,106,6.1,106,7.6z"/>
		</g>
	</g>
</g>
<g>
	<g>
		<g>
			<path class="st0" d="M192.2,7.6c0,1.3,1.1,2.4,2.4,2.4c1.3,0,2.4-1.1,2.4-2.4c0-1.3-1.1-2.4-2.4-2.4
				C193.3,5.2,192.2,6.3,192.2,7.6z"/>
			<path class="st0" d="M191.9,7.6c0,1.5,1.2,2.7,2.7,2.7s2.7-1.2,2.7-2.7s-1.2-2.7-2.7-2.7S191.9,6.1,191.9,7.6z"/>
		</g>
	</g>
</g>
<g>
	<g>
		<g>
			<path class="st0" d="M192.2,75.6c0,1.3,1.1,2.4,2.4,2.4c1.3,0,2.4-1.1,2.4-2.4c0-1.3-1.1-2.4-2.4-2.4
				C193.3,73.2,192.2,74.3,192.2,75.6z"/>
			<path class="st0" d="M191.9,75.6c0,1.5,1.2,2.7,2.7,2.7s2.7-1.2,2.7-2.7s-1.2-2.7-2.7-2.7S191.9,74.1,191.9,75.6z"/>
		</g>
	</g>
</g>
<g>
	<g>
		<g>
			<path class="st0" d="M106.2,75.6c0,1.3,1.1,2.4,2.4,2.4c1.3,0,2.4-1.1,2.4-2.4c0-1.3-1.1-2.4-2.4-2.4
				C107.3,73.2,106.2,74.3,106.2,75.6z"/>
			<path class="st0" d="M105.9,75.6c0,1.5,1.2,2.7,2.7,2.7s2.7-1.2,2.7-2.7s-1.2-2.7-2.7-2.7S105.9,74.1,105.9,75.6z"/>
		</g>
	</g>
</g>
<g>
	<g>
		<g>
			<rect x="115.3" y="0.2" class="st0" width="72.1" height="13.5"/>
			<rect x="115.1" y="0" class="st0" width="72.6" height="14"/>
		</g>
	</g>
</g>
<g>
	<g>
		<g>
			
				<ellipse transform="matrix(0.9732 -0.2298 0.2298 0.9732 -4.2752 58.4818)" class="st0" cx="249" cy="47.6" rx="47.1" ry="47.1"/>
			<circle class="st0" cx="249" cy="47.6" r="47.3"/>
		</g>
	</g>
</g>
<g>
	<g>
		<rect x="147.1" y="28.2" class="st1" width="8.4" height="26"/>
	</g>
</g>
<g>
	<g>
		<rect x="246.9" y="25.8" class="st1" width="8.4" height="44"/>
	</g>
</g>
<g>
	<g>
		<rect x="229.1" y="43.6" class="st1" width="44" height="8.4"/>
	</g>
</g>
<g>
	<g>
		<rect x="138.3" y="37" class="st1" width="26" height="8.4"/>
	</g>
</g>
<g>
	<g>
		<path class="st1" d="M130.3,97.5c0,3.1-10.1,5.7-22.7,5.7h-0.3c-12.5,0-22.7-6.3-22.7-14.2h-0.2h-2.8v0.2V92H82h-8.4v18h34l0,0
			v8.4V118h-34v18H82h-0.4v2.8v0.2h2.8h0.2c0-7.8,10.1-14.2,22.7-14.2h0.3c12.5,0,22.7,2.5,22.7,5.7l0.3-0.5h2.8h0.2v-2.8V127h8.4
			h-0.4v-26h0.4h-8.4v-0.2V98h-0.2h-2.8"/>
	</g>
</g>
<g>
	<g>
		<path class="st1" d="M199.3,130h2.8h0.2v-2.8V127h8.4h-0.4v-8.5V118h-34v0.4V110l0,0h34v-0.5V101h0.4h-8.4v-0.2V98h-0.2h-2.8
			l-0.3-0.5c0,3.1-10.1,5.7-22.7,5.7H176c-12.5,0-22.7-6.3-22.7-14.2h-0.2h-2.8v0.2V92h0.4h-8.4v44h8.4h-0.4v2.8v0.2h2.8h0.2
			c0-7.8,10.1-14.2,22.7-14.2h0.3c12.5,0,22.7,2.5,22.7,5.7"/>
	</g>
</g>
<g>
	<g>
		<circle class="st1" cx="229" cy="24.9" r="7.1"/>
	</g>
</g>
<g>
	<g>
		<circle class="st1" cx="273" cy="24.9" r="7.1"/>
	</g>
</g>
<g>
	<g>
		<circle class="st1" cx="229" cy="69.9" r="7.1"/>
	</g>
</g>
<g>
	<g>
		<circle class="st1" cx="273" cy="69.9" r="7.1"/>
	</g>
</g>
</svg>
