<?xml version="1.0" encoding="utf-8"?>
<!-- Generator: Adobe Illustrator 22.0.1, SVG Export Plug-In . SVG Version: 6.00 Build 0)  -->
<svg version="1.1" id="_x30_" xmlns="http://www.w3.org/2000/svg" xmlns:xlink="http://www.w3.org/1999/xlink" x="0px" y="0px"
	 viewBox="0 0 362.8 566.9" style="enable-background:new 0 0 362.8 566.9;" xml:space="preserve">
<style type="text/css">
	.st0{fill:none;stroke:#000000;stroke-width:0.7087;stroke-linecap:round;stroke-linejoin:round;stroke-miterlimit:10;}
</style>
<g id="SPLINE">
	<ellipse class="st0" cx="140.9" cy="177.3" rx="2.6" ry="2.7"/>
</g>
<g id="SPLINE_1_">
	<circle class="st0" cx="260.3" cy="239.7" r="7.1"/>
</g>
<g id="LWPOLYLINE_1_">
	<rect x="170.6" y="206.7" class="st0" width="26" height="8.4"/>
</g>
<g id="SPLINE_4_">
	<circle class="st0" cx="125.9" cy="245.3" r="3.6"/>
</g>
<g id="LINE_7_">
	<line class="st0" x1="133.4" y1="252.3" x2="133.4" y2="169.8"/>
</g>
<g id="SPLINE_6_">
	<circle class="st0" cx="304.3" cy="239.7" r="7.1"/>
</g>
<g id="LWPOLYLINE_2_">
	<rect x="32.6" y="170" class="st0" width="100.3" height="82.3"/>
</g>
<g id="SPLINE_7_">
	<circle class="st0" cx="67.3" cy="291.8" r="32.9"/>
</g>
<g id="LINE_13_">
	<line class="st0" x1="233.7" y1="169.8" x2="233.7" y2="252.3"/>
</g>
<g id="LWPOLYLINE_3_">
	<rect x="260.4" y="213.4" class="st0" width="44" height="8.4"/>
</g>
<g id="SPLINE_10_">
	<circle class="st0" cx="282.3" cy="217.2" r="47.1"/>
</g>
<g id="LINE_18_">
	<line class="st0" x1="147.4" y1="183.7" x2="220" y2="183.7"/>
</g>
<g id="LWPOLYLINE_4_">
	<rect x="179.4" y="197.9" class="st0" width="8.4" height="26"/>
</g>
<g id="LINE_23_">
	<line class="st0" x1="147.4" y1="169.8" x2="147.4" y2="183.7"/>
</g>
<g id="LWPOLYLINE_6_">
	<rect x="278.2" y="195.6" class="st0" width="8.4" height="44"/>
</g>
<g id="SPLINE_11_">
	<circle class="st0" cx="226.9" cy="245.3" r="2.7"/>
</g>
<g id="LINE_25_">
	<line class="st0" x1="220" y1="183.7" x2="220" y2="169.8"/>
</g>
<g id="SPLINE_13_">
	<circle class="st0" cx="226.9" cy="177.3" r="2.7"/>
</g>
<g id="SPLINE_15_">
	<circle class="st0" cx="39.9" cy="245.3" r="3.6"/>
</g>
<g id="SPLINE_16_">
	<path class="st0" d="M143.6,245.3c0-1.5-1.2-2.7-2.7-2.7"/>
</g>
<g id="SPLINE_17_">
	<circle class="st0" cx="39.9" cy="177.3" r="3.6"/>
</g>
<g id="SPLINE_18_">
	<circle class="st0" cx="260.3" cy="194.7" r="7.1"/>
</g>
<g id="LINE_41_">
	<line class="st0" x1="133.4" y1="169.8" x2="233.7" y2="169.8"/>
</g>
<g id="LINE_49_">
	<line class="st0" x1="133.4" y1="252.3" x2="233.7" y2="252.3"/>
</g>
<g id="SPLINE_22_">
	<path class="st0" d="M140.9,242.6c-1.5,0-2.7,1.2-2.7,2.7s1.2,2.7,2.7,2.7s2.7-1.2,2.7-2.7"/>
</g>
<g id="SPLINE_25_">
	<circle class="st0" cx="304.3" cy="194.7" r="7.1"/>
</g>
<g id="SPLINE_26_">
	<circle class="st0" cx="125.9" cy="177.3" r="3.6"/>
</g>
<g>
	<g id="LINE_64_">
		<path class="st0" d="M249.6,297.7v-8.5v-0.5h-34v-8h34v-0.5v-8.5h-8v-0.2v-2.8h-0.2h-2.8l-0.3-0.5c0,3.1-10.1,5.7-22.7,5.7h-0.3
			c-12.5,0-22.7-6.3-22.7-14.2h-0.2h-2.8v0.2v2.8h-8v44h8v2.8v0.2h2.8h0.2c0-7.8,10.1-14.2,22.7-14.2h0.3c12.5,0,22.7,2.5,22.7,5.7
			l0.3-0.5h2.8h0.2v-2.8v-0.2H249.6"/>
	</g>
</g>
<g id="LINE_65_">
	<path class="st0" d="M113.9,258.9v-0.2h2.8h0.2c0,7.9,10.2,14.2,22.7,14.2h0.3c12.6,0,22.7-2.6,22.7-5.7l0.3,0.5l3,0l0,3
		c0,0,8,0,8,0v26h-8v0.2v2.8h-0.2h-2.8l-0.3,0.5c0-3.2-10.2-5.7-22.7-5.7h-0.3c-12.6,0-22.7,6.4-22.7,14.2h-0.2h-2.8v-3h-8v-18h34
		v-8h-34v-18h8V258.9z"/>
</g>
</svg>
