  0
SECTION
  2
HEADER
  9
$ACADVER
  1
AC1024
  9
$ACADMAINTVER
 70
     6
  9
$DWGCODEPAGE
  3
UNDEFINED
  9
$INSBASE
 10
0.0
 20
0.0
 30
0.0
  9
$EXTMIN
 10
1.000000000000000E+20
 20
1.000000000000000E+20
 30
1.000000000000000E+20
  9
$EXTMAX
 10
-1.000000000000000E+20
 20
-1.000000000000000E+20
 30
-1.000000000000000E+20
  9
$LIMMIN
 10
0.0
 20
0.0
  9
$LIMMAX
 10
12.0
 20
9.0
  9
$ORTHOMODE
 70
     0
  9
$REGENMODE
 70
     1
  9
$FILLMODE
 70
     1
  9
$QTEXTMODE
 70
     0
  9
$MIRRTEXT
 70
     1
  9
$LTSCALE
 40
1.0
  9
$ATTMODE
 70
     1
  9
$TEXTSIZE
 40
0.2
  9
$TRACEWID
 40
0.05
  9
$TEXTSTYLE
  7
Standard
  9
$CLAYER
  8
0
  9
$CELTYPE
  6
ByLayer
  9
$CECOLOR
 62
   256
  9
$CELTSCALE
 40
1.0
  9
$DISPSILH
 70
     0
  9
$DIMSCALE
 40
1.0
  9
$DIMASZ
 40
0.18
  9
$DIMEXO
 40
0.0625
  9
$DIMDLI
 40
0.38
  9
$DIMRND
 40
0.0
  9
$DIMDLE
 40
0.0
  9
$DIMEXE
 40
0.18
  9
$DIMTP
 40
0.0
  9
$DIMTM
 40
0.0
  9
$DIMTXT
 40
0.18
  9
$DIMCEN
 40
0.09
  9
$DIMTSZ
 40
0.0
  9
$DIMTOL
 70
     0
  9
$DIMLIM
 70
     0
  9
$DIMTIH
 70
     1
  9
$DIMTOH
 70
     1
  9
$DIMSE1
 70
     0
  9
$DIMSE2
 70
     0
  9
$DIMTAD
 70
     0
  9
$DIMZIN
 70
     0
  9
$DIMBLK
  1

  9
$DIMASO
 70
     1
  9
$DIMSHO
 70
     1
  9
$DIMPOST
  1

  9
$DIMAPOST
  1

  9
$DIMALT
 70
     0
  9
$DIMALTD
 70
     2
  9
$DIMALTF
 40
25.4
  9
$DIMLFAC
 40
1.0
  9
$DIMTOFL
 70
     0
  9
$DIMTVP
 40
0.0
  9
$DIMTIX
 70
     0
  9
$DIMSOXD
 70
     0
  9
$DIMSAH
 70
     0
  9
$DIMBLK1
  1

  9
$DIMBLK2
  1

  9
$DIMSTYLE
  2
Standard
  9
$DIMCLRD
 70
     0
  9
$DIMCLRE
 70
     0
  9
$DIMCLRT
 70
     0
  9
$DIMTFAC
 40
1.0
  9
$DIMGAP
 40
0.09
  9
$DIMJUST
 70
     0
  9
$DIMSD1
 70
     0
  9
$DIMSD2
 70
     0
  9
$DIMTOLJ
 70
     1
  9
$DIMTZIN
 70
     0
  9
$DIMALTZ
 70
     0
  9
$DIMALTTZ
 70
     0
  9
$DIMUPT
 70
     0
  9
$DIMDEC
 70
     4
  9
$DIMTDEC
 70
     4
  9
$DIMALTU
 70
     2
  9
$DIMALTTD
 70
     2
  9
$DIMTXSTY
  7
Standard
  9
$DIMAUNIT
 70
     0
  9
$DIMADEC
 70
     0
  9
$DIMALTRND
 40
0.0
  9
$DIMAZIN
 70
     0
  9
$DIMDSEP
 70
    46
  9
$DIMATFIT
 70
     3
  9
$DIMFRAC
 70
     0
  9
$DIMLDRBLK
  1

  9
$DIMLUNIT
 70
     2
  9
$DIMLWD
 70
    -2
  9
$DIMLWE
 70
    -2
  9
$DIMTMOVE
 70
     0
  9
$DIMFXL
 40
1.0
  9
$DIMFXLON
 70
     0
  9
$DIMJOGANG
 40
0.7853981633974483
  9
$DIMTFILL
 70
     0
  9
$DIMTFILLCLR
 70
     0
  9
$DIMARCSYM
 70
     0
  9
$DIMLTYPE
  6

  9
$DIMLTEX1
  6

  9
$DIMLTEX2
  6

  9
$DIMTXTDIRECTION
 70
     0
  9
$LUNITS
 70
     2
  9
$LUPREC
 70
     4
  9
$SKETCHINC
 40
0.1
  9
$FILLETRAD
 40
0.5
  9
$AUNITS
 70
     0
  9
$AUPREC
 70
     0
  9
$MENU
  1
.
  9
$ELEVATION
 40
0.0
  9
$PELEVATION
 40
0.0
  9
$THICKNESS
 40
0.0
  9
$LIMCHECK
 70
     0
  9
$CHAMFERA
 40
0.5
  9
$CHAMFERB
 40
0.5
  9
$CHAMFERC
 40
1.0
  9
$CHAMFERD
 40
0.0
  9
$SKPOLY
 70
     0
  9
$TDCREATE
 40
2458285.154050915
  9
$TDUCREATE
 40
2458285.362384259
  9
$TDUPDATE
 40
2458285.154050915
  9
$TDUUPDATE
 40
2458285.362384259
  9
$TDINDWG
 40
0.0000000116
  9
$TDUSRTIMER
 40
0.0000000116
  9
$USRTIMER
 70
     1
  9
$ANGBASE
 50
0.0
  9
$ANGDIR
 70
     0
  9
$PDMODE
 70
     0
  9
$PDSIZE
 40
0.0
  9
$PLINEWID
 40
0.0
  9
$SPLFRAME
 70
     0
  9
$SPLINETYPE
 70
     6
  9
$SPLINESEGS
 70
     8
  9
$HANDSEED
  5
E7
  9
$SURFTAB1
 70
     6
  9
$SURFTAB2
 70
     6
  9
$SURFTYPE
 70
     6
  9
$SURFU
 70
     6
  9
$SURFV
 70
     6
  9
$UCSBASE
  2

  9
$UCSNAME
  2

  9
$UCSORG
 10
0.0
 20
0.0
 30
0.0
  9
$UCSXDIR
 10
1.0
 20
0.0
 30
0.0
  9
$UCSYDIR
 10
0.0
 20
1.0
 30
0.0
  9
$UCSORTHOREF
  2

  9
$UCSORTHOVIEW
 70
     0
  9
$UCSORGTOP
 10
0.0
 20
0.0
 30
0.0
  9
$UCSORGBOTTOM
 10
0.0
 20
0.0
 30
0.0
  9
$UCSORGLEFT
 10
0.0
 20
0.0
 30
0.0
  9
$UCSORGRIGHT
 10
0.0
 20
0.0
 30
0.0
  9
$UCSORGFRONT
 10
0.0
 20
0.0
 30
0.0
  9
$UCSORGBACK
 10
0.0
 20
0.0
 30
0.0
  9
$PUCSBASE
  2

  9
$PUCSNAME
  2

  9
$PUCSORG
 10
0.0
 20
0.0
 30
0.0
  9
$PUCSXDIR
 10
1.0
 20
0.0
 30
0.0
  9
$PUCSYDIR
 10
0.0
 20
1.0
 30
0.0
  9
$PUCSORTHOREF
  2

  9
$PUCSORTHOVIEW
 70
     0
  9
$PUCSORGTOP
 10
0.0
 20
0.0
 30
0.0
  9
$PUCSORGBOTTOM
 10
0.0
 20
0.0
 30
0.0
  9
$PUCSORGLEFT
 10
0.0
 20
0.0
 30
0.0
  9
$PUCSORGRIGHT
 10
0.0
 20
0.0
 30
0.0
  9
$PUCSORGFRONT
 10
0.0
 20
0.0
 30
0.0
  9
$PUCSORGBACK
 10
0.0
 20
0.0
 30
0.0
  9
$USERI1
 70
     0
  9
$USERI2
 70
     0
  9
$USERI3
 70
     0
  9
$USERI4
 70
     0
  9
$USERI5
 70
     0
  9
$USERR1
 40
0.0
  9
$USERR2
 40
0.0
  9
$USERR3
 40
0.0
  9
$USERR4
 40
0.0
  9
$USERR5
 40
0.0
  9
$WORLDVIEW
 70
     1
  9
$SHADEDGE
 70
     3
  9
$SHADEDIF
 70
    70
  9
$TILEMODE
 70
     1
  9
$MAXACTVP
 70
    64
  9
$PINSBASE
 10
0.0
 20
0.0
 30
0.0
  9
$PLIMCHECK
 70
     0
  9
$PEXTMIN
 10
1.000000000000000E+20
 20
1.000000000000000E+20
 30
1.000000000000000E+20
  9
$PEXTMAX
 10
-1.000000000000000E+20
 20
-1.000000000000000E+20
 30
-1.000000000000000E+20
  9
$PLIMMIN
 10
0.0
 20
0.0
  9
$PLIMMAX
 10
12.0
 20
9.0
  9
$UNITMODE
 70
     0
  9
$VISRETAIN
 70
     1
  9
$PLINEGEN
 70
     0
  9
$PSLTSCALE
 70
     1
  9
$TREEDEPTH
 70
  3020
  9
$CMLSTYLE
  2
Standard
  9
$CMLJUST
 70
     0
  9
$CMLSCALE
 40
1.0
  9
$PROXYGRAPHICS
 70
     1
  9
$MEASUREMENT
 70
     0
  9
$CELWEIGHT
370
    -1
  9
$ENDCAPS
280
     0
  9
$JOINSTYLE
280
     0
  9
$LWDISPLAY
290
     1
  9
$INSUNITS
 70
     1
  9
$HYPERLINKBASE
  1

  9
$STYLESHEET
  1

  9
$XEDIT
290
     1
  9
$CEPSNTYPE
380
     0
  9
$PSTYLEMODE
290
     1
  9
$FINGERPRINTGUID
  2
{62897549-B9A9-C3B8-24FA-885347EA097E}
  9
$VERSIONGUID
  2
{FAEB1C32-E019-11D5-929B-00C0DF256EC4}
  9
$EXTNAMES
290
     1
  9
$PSVPSCALE
 40
0.0
  9
$OLESTARTUP
290
     0
  9
$SORTENTS
280
   127
  9
$INDEXCTL
280
     0
  9
$HIDETEXT
280
     1
  9
$XCLIPFRAME
280
     2
  9
$HALOGAP
280
     0
  9
$OBSCOLOR
 70
   257
  9
$OBSLTYPE
280
     0
  9
$INTERSECTIONDISPLAY
280
     0
  9
$INTERSECTIONCOLOR
 70
   257
  9
$DIMASSOC
280
     2
  9
$PROJECTNAME
  1

  9
$CAMERADISPLAY
290
     0
  9
$LENSLENGTH
 40
50.0
  9
$CAMERAHEIGHT
 40
0.0
  9
$STEPSPERSEC
 40
2.0
  9
$STEPSIZE
 40
6.0
  9
$3DDWFPREC
 40
2.0
  9
$PSOLWIDTH
 40
0.25
  9
$PSOLHEIGHT
 40
4.0
  9
$LOFTANG1
 40
1.570796326794897
  9
$LOFTANG2
 40
1.570796326794897
  9
$LOFTMAG1
 40
0.0
  9
$LOFTMAG2
 40
0.0
  9
$LOFTPARAM
 70
     7
  9
$LOFTNORMALS
280
     1
  9
$LATITUDE
 40
37.795
  9
$LONGITUDE
 40
-122.394
  9
$NORTHDIRECTION
 40
0.0
  9
$TIMEZONE
 70
 -8000
  9
$LIGHTGLYPHDISPLAY
280
     1
  9
$TILEMODELIGHTSYNCH
280
     1
  9
$CMATERIAL
347
3C
  9
$SOLIDHIST
280
     1
  9
$SHOWHIST
280
     1
  9
$DWFFRAME
280
     2
  9
$DGNFRAME
280
     2
  9
$REALWORLDSCALE
290
     1
  9
$INTERFERECOLOR
 62
   256
  9
$CSHADOW
280
     0
  9
$SHADOWPLANELOCATION
 40
0.0
  0
ENDSEC
  0
SECTION
  2
CLASSES
  0
CLASS
  1
ACDBDICTIONARYWDFLT
  2
AcDbDictionaryWithDefault
  3
ObjectDBX Classes
 90
        0
 91
        4
280
     0
281
     0
  0
CLASS
  1
VISUALSTYLE
  2
AcDbVisualStyle
  3
ObjectDBX Classes
 90
     4095
 91
        4
280
     0
281
     0
  0
CLASS
  1
MATERIAL
  2
AcDbMaterial
  3
ObjectDBX Classes
 90
     1153
 91
        4
280
     0
281
     0
  0
CLASS
  1
SUN
  2
AcDbSun
  3
SCENEOE
 90
     1024
 91
        4
280
     0
281
     0
  0
ENDSEC
  0
SECTION
  2
TABLES
  0
TABLE
  2
VPORT
  5
8
330
0
100
AcDbSymbolTable
 70
     1
  0
VPORT
  5
29
330
8
100
AcDbSymbolTableRecord
100
AcDbViewportTableRecord
  2
*Active
 70
     0
 10
0.0
 20
0.0
 11
1.0
 21
1.0
 12
0.0
 22
0.0
 13
0.0
 23
0.0
 14
0.5
 24
0.5
 15
0.5
 25
0.5
 16
0.0
 26
0.0
 36
1.0
 17
63.99388671970574
 27
99.99486539248191
 37
0.0
 40
199.9897307849638
 41
0.6399717272334776
 42
50.0
 43
0.0
 44
0.0
 50
0.0
 51
0.0
 71
     0
 72
   100
 73
     1
 74
     3
 75
     0
 76
     0
 77
     0
 78
     0
281
     0
 65
     1
110
0.0
120
0.0
130
0.0
111
1.0
121
0.0
131
0.0
112
0.0
122
1.0
132
0.0
 79
     0
146
0.0
 60
     3
 61
     5
292
     1
282
     1
141
0.0
142
0.0
 63
   250
361
3F
  0
ENDTAB
  0
TABLE
  2
LTYPE
  5
5
330
0
100
AcDbSymbolTable
 70
     1
  0
LTYPE
  5
14
330
5
100
AcDbSymbolTableRecord
100
AcDbLinetypeTableRecord
  2
ByBlock
 70
     0
  3

 72
    65
 73
     0
 40
0.0
  0
LTYPE
  5
15
330
5
100
AcDbSymbolTableRecord
100
AcDbLinetypeTableRecord
  2
ByLayer
 70
     0
  3

 72
    65
 73
     0
 40
0.0
  0
LTYPE
  5
16
330
5
100
AcDbSymbolTableRecord
100
AcDbLinetypeTableRecord
  2
Continuous
 70
     0
  3
Solid line
 72
    65
 73
     0
 40
0.0
  0
ENDTAB
  0
TABLE
  2
LAYER
  5
2
330
0
100
AcDbSymbolTable
 70
     2
  0
LAYER
  5
10
330
2
100
AcDbSymbolTableRecord
100
AcDbLayerTableRecord
  2
0
 70
     0
 62
     7
  6
Continuous
370
    -3
390
F
347
3E
  0
LAYER
  5
40
330
2
100
AcDbSymbolTableRecord
100
AcDbLayerTableRecord
  2
Layer 1
 70
     0
 62
     7
  6
Continuous
370
    -3
390
F
347
3E
  0
ENDTAB
  0
TABLE
  2
STYLE
  5
3
330
0
100
AcDbSymbolTable
 70
     1
  0
STYLE
  5
11
330
3
100
AcDbSymbolTableRecord
100
AcDbTextStyleTableRecord
  2
Standard
 70
     0
 40
0.0
 41
1.0
 50
0.0
 71
     0
 42
0.2
  3
txt
  4

  0
ENDTAB
  0
TABLE
  2
VIEW
  5
6
330
0
100
AcDbSymbolTable
 70
     0
  0
ENDTAB
  0
TABLE
  2
UCS
  5
7
330
0
100
AcDbSymbolTable
 70
     0
  0
ENDTAB
  0
TABLE
  2
APPID
  5
9
330
0
100
AcDbSymbolTable
 70
     1
  0
APPID
  5
12
330
9
100
AcDbSymbolTableRecord
100
AcDbRegAppTableRecord
  2
ACAD
 70
     0
  0
ENDTAB
  0
TABLE
  2
DIMSTYLE
  5
A
330
0
100
AcDbSymbolTable
 70
     1
100
AcDbDimStyleTable
  0
DIMSTYLE
105
27
330
A
100
AcDbSymbolTableRecord
100
AcDbDimStyleTableRecord
  2
Standard
 70
     0
178
     0
340
11
  0
ENDTAB
  0
TABLE
  2
BLOCK_RECORD
  5
1
330
0
100
AcDbSymbolTable
 70
    14
  0
BLOCK_RECORD
  5
1F
330
1
100
AcDbSymbolTableRecord
100
AcDbBlockTableRecord
  2
*Model_Space
340
22
 70
     0
280
     1
281
     0
  0
BLOCK_RECORD
  5
1B
330
1
100
AcDbSymbolTableRecord
100
AcDbBlockTableRecord
  2
*Paper_Space
340
1E
 70
     0
280
     1
281
     0
  0
BLOCK_RECORD
  5
23
330
1
100
AcDbSymbolTableRecord
100
AcDbBlockTableRecord
  2
*Paper_Space0
340
26
 70
     0
280
     1
281
     0
  0
BLOCK_RECORD
  5
41
330
1
100
AcDbSymbolTableRecord
100
AcDbBlockTableRecord
  2
block 2
340
0
102
{BLKREFS
331
42
102
}
 70
     0
280
     1
281
     0
  0
BLOCK_RECORD
  5
55
330
1
100
AcDbSymbolTableRecord
100
AcDbBlockTableRecord
  2
block 3
340
0
102
{BLKREFS
331
56
102
}
 70
     0
280
     1
281
     0
  0
BLOCK_RECORD
  5
5C
330
1
100
AcDbSymbolTableRecord
100
AcDbBlockTableRecord
  2
block 4
340
0
102
{BLKREFS
331
5D
102
}
 70
     0
280
     1
281
     0
  0
BLOCK_RECORD
  5
63
330
1
100
AcDbSymbolTableRecord
100
AcDbBlockTableRecord
  2
block 5
340
0
102
{BLKREFS
331
64
102
}
 70
     0
280
     1
281
     0
  0
BLOCK_RECORD
  5
6A
330
1
100
AcDbSymbolTableRecord
100
AcDbBlockTableRecord
  2
block 6
340
0
102
{BLKREFS
331
6B
102
}
 70
     0
280
     1
281
     0
  0
BLOCK_RECORD
  5
71
330
1
100
AcDbSymbolTableRecord
100
AcDbBlockTableRecord
  2
block 7
340
0
102
{BLKREFS
331
72
102
}
 70
     0
280
     1
281
     0
  0
BLOCK_RECORD
  5
78
330
1
100
AcDbSymbolTableRecord
100
AcDbBlockTableRecord
  2
block 8
340
0
102
{BLKREFS
331
79
102
}
 70
     0
280
     1
281
     0
  0
BLOCK_RECORD
  5
8C
330
1
100
AcDbSymbolTableRecord
100
AcDbBlockTableRecord
  2
block 9
340
0
102
{BLKREFS
331
8D
102
}
 70
     0
280
     1
281
     0
  0
BLOCK_RECORD
  5
93
330
1
100
AcDbSymbolTableRecord
100
AcDbBlockTableRecord
  2
block 10
340
0
102
{BLKREFS
331
94
102
}
 70
     0
280
     1
281
     0
  0
BLOCK_RECORD
  5
9A
330
1
100
AcDbSymbolTableRecord
100
AcDbBlockTableRecord
  2
block 11
340
0
102
{BLKREFS
331
9B
102
}
 70
     0
280
     1
281
     0
  0
BLOCK_RECORD
  5
A1
330
1
100
AcDbSymbolTableRecord
100
AcDbBlockTableRecord
  2
block 12
340
0
102
{BLKREFS
331
A2
102
}
 70
     0
280
     1
281
     0
  0
BLOCK_RECORD
  5
A8
330
1
100
AcDbSymbolTableRecord
100
AcDbBlockTableRecord
  2
block 13
340
0
102
{BLKREFS
331
A9
102
}
 70
     0
280
     1
281
     0
  0
BLOCK_RECORD
  5
BC
330
1
100
AcDbSymbolTableRecord
100
AcDbBlockTableRecord
  2
block 14
340
0
102
{BLKREFS
331
BD
102
}
 70
     0
280
     1
281
     0
  0
ENDTAB
  0
ENDSEC
  0
SECTION
  2
BLOCKS
  0
BLOCK
  5
20
330
1F
100
AcDbEntity
  8
0
100
AcDbBlockBegin
  2
*Model_Space
 70
     0
 10
0.0
 20
0.0
 30
0.0
  3
*Model_Space
  1

  0
ENDBLK
  5
21
330
1F
100
AcDbEntity
  8
0
100
AcDbBlockEnd
  0
BLOCK
  5
1C
330
1B
100
AcDbEntity
 67
     1
  8
0
100
AcDbBlockBegin
  2
*Paper_Space
 70
     0
 10
0.0
 20
0.0
 30
0.0
  3
*Paper_Space
  1

  0
ENDBLK
  5
1D
330
1B
100
AcDbEntity
 67
     1
  8
0
100
AcDbBlockEnd
  0
BLOCK
  5
24
330
23
100
AcDbEntity
  8
0
100
AcDbBlockBegin
  2
*Paper_Space0
 70
     0
 10
0.0
 20
0.0
 30
0.0
  3
*Paper_Space0
  1

  0
ENDBLK
  5
25
330
23
100
AcDbEntity
  8
0
100
AcDbBlockEnd
  0
BLOCK
  5
43
330
41
100
AcDbEntity
  8
0
100
AcDbBlockBegin
  2
block 2
 70
     0
 10
0.0
 20
0.0
 30
0.0
  3
block 2
  1

  0
POLYLINE
  5
45
330
41
100
AcDbEntity
  8
Layer 1
370
     0
100
AcDb2dPolyline
 66
     1
 10
0.0
 20
0.0
 30
0.0
  0
VERTEX
  5
46
330
45
100
AcDbEntity
  8
Layer 1
370
     0
100
AcDbVertex
100
AcDb2dVertex
 10
35.48944389727591
 20
199.8838989733191
 30
0.0
  0
VERTEX
  5
47
330
45
100
AcDbEntity
  8
Layer 1
370
     0
100
AcDbVertex
100
AcDb2dVertex
 10
35.48944389727591
 20
170.8502857204872
 30
0.0
  0
VERTEX
  5
48
330
45
100
AcDbEntity
  8
Layer 1
370
     0
100
AcDbVertex
100
AcDb2dVertex
 10
0.1058333375123138
 20
170.8502857204872
 30
0.0
  0
VERTEX
  5
49
330
45
100
AcDbEntity
  8
Layer 1
370
     0
100
AcDbVertex
100
AcDb2dVertex
 10
0.1058333375123138
 20
199.8838989733191
 30
0.0
  0
VERTEX
  5
4A
330
45
100
AcDbEntity
  8
Layer 1
370
     0
100
AcDbVertex
100
AcDb2dVertex
 10
35.48944389727591
 20
199.8838989733191
 30
0.0
  0
SEQEND
  5
4B
330
45
100
AcDbEntity
  8
Layer 1
370
     0
  0
POLYLINE
  5
4C
330
41
100
AcDbEntity
  8
Layer 1
370
     0
100
AcDb2dPolyline
 66
     1
 10
0.0
 20
0.0
 30
0.0
  0
VERTEX
  5
4D
330
4C
100
AcDbEntity
  8
Layer 1
370
     0
100
AcDbVertex
100
AcDb2dVertex
 10
35.56000106770234
 20
199.9897323108314
 30
0.0
  0
VERTEX
  5
4E
330
4C
100
AcDbEntity
  8
Layer 1
370
     0
100
AcDbVertex
100
AcDb2dVertex
 10
0.0
 20
199.9897323108314
 30
0.0
  0
VERTEX
  5
4F
330
4C
100
AcDbEntity
  8
Layer 1
370
     0
100
AcDbVertex
100
AcDb2dVertex
 10
0.0
 20
170.7797312415416
 30
0.0
  0
VERTEX
  5
50
330
4C
100
AcDbEntity
  8
Layer 1
370
     0
100
AcDbVertex
100
AcDb2dVertex
 10
35.56000106770234
 20
170.7797312415416
 30
0.0
  0
VERTEX
  5
51
330
4C
100
AcDbEntity
  8
Layer 1
370
     0
100
AcDbVertex
100
AcDb2dVertex
 10
35.56000106770234
 20
199.9897323108314
 30
0.0
  0
VERTEX
  5
52
330
4C
100
AcDbEntity
  8
Layer 1
370
     0
100
AcDbVertex
100
AcDb2dVertex
 10
35.56000106770234
 20
199.9897323108314
 30
0.0
  0
SEQEND
  5
53
330
4C
100
AcDbEntity
  8
Layer 1
370
     0
  0
HATCH
  5
54
330
41
100
AcDbEntity
  8
Layer 1
 62
     7
420
 16777215
100
AcDbHatch
 10
0.0
 20
0.0
 30
0.0
210
0.0
220
0.0
230
1.0
  2
SOLID
 70
     1
 71
     0
 91
        2
 92
        1
 93
        4
 72
     1
 10
35.56000106770234
 20
199.9897323108314
 11
0.0
 21
199.9897323108314
 72
     1
 10
0.0
 20
199.9897323108314
 11
0.0
 21
170.7797312415416
 72
     1
 10
0.0
 20
170.7797312415416
 11
35.56000106770234
 21
170.7797312415416
 72
     1
 10
35.56000106770234
 20
170.7797312415416
 11
35.56000106770234
 21
199.9897323108314
 97
        0
 92
        1
 93
        4
 72
     1
 10
35.48944389727591
 20
199.8838989733191
 11
35.48944389727591
 21
170.8502857204872
 72
     1
 10
35.48944389727591
 20
170.8502857204872
 11
0.1058333375123084
 21
170.8502857204872
 72
     1
 10
0.1058333375123138
 20
170.8502857204872
 11
0.1058333375123138
 21
199.8838989733191
 72
     1
 10
0.1058333375123138
 20
199.8838989733191
 11
35.48944389727592
 21
199.8838989733191
 97
        0
 75
     2
 76
     1
 98
        0
  0
ENDBLK
  5
44
330
41
100
AcDbEntity
  8
0
100
AcDbBlockEnd
  0
BLOCK
  5
57
330
55
100
AcDbEntity
  8
0
100
AcDbBlockBegin
  2
block 3
 70
     0
 10
0.0
 20
0.0
 30
0.0
  3
block 3
  1

  0
SPLINE
  5
59
330
55
100
AcDbEntity
  8
Layer 1
370
     0
100
AcDbSpline
210
0.0
220
0.0
230
1.0
 70
    11
 71
     3
 72
    17
 73
    13
 74
     0
 42
0.0000000001
 43
0.0000000001
 12
1.0
 22
0.0
 32
0.0
 13
1.0
 23
0.0
 33
0.0
 40
0.0
 40
0.0
 40
0.0
 40
0.0
 40
1.0
 40
1.0
 40
1.0
 40
2.0
 40
2.0
 40
2.0
 40
3.0
 40
3.0
 40
3.0
 40
4.0
 40
4.0
 40
4.0
 40
4.0
 10
2.681111076797323
 20
198.5080657118222
 30
0.0
 10
3.316110975708041
 20
198.5080657118222
 30
0.0
 10
3.845277642242416
 20
197.9788990452878
 30
0.0
 10
3.845277642242416
 20
197.3438989781596
 30
0.0
 10
3.845277642242416
 20
196.7088989110313
 30
0.0
 10
3.316110975708041
 20
196.1797322444969
 30
0.0
 10
2.68111090857977
 20
196.1797322444969
 30
0.0
 10
2.046110841451499
 20
196.1797322444969
 30
0.0
 10
1.481666599009229
 20
196.6736213351234
 30
0.0
 10
1.481666599009229
 20
197.3086212340341
 30
0.0
 10
1.481666599009229
 20
197.9436211329448
 30
0.0
 10
2.046111177886605
 20
198.5080657118222
 30
0.0
 10
2.681111076797323
 20
198.5080657118222
 30
0.0
  0
SPLINE
  5
5A
330
55
100
AcDbEntity
  8
Layer 1
370
     0
100
AcDbSpline
210
0.0
220
0.0
230
1.0
 70
    11
 71
     3
 72
    20
 73
    16
 74
     0
 42
0.0000000001
 43
0.0000000001
 12
1.0
 22
0.0
 32
0.0
 13
1.0
 23
0.0
 33
0.0
 40
0.0
 40
0.0
 40
0.0
 40
0.0
 40
1.0
 40
1.0
 40
1.0
 40
2.0
 40
2.0
 40
2.0
 40
3.0
 40
3.0
 40
3.0
 40
4.0
 40
4.0
 40
4.0
 40
5.0
 40
5.0
 40
5.0
 40
5.0
 10
2.681111076797323
 20
198.5786212000731
 30
0.0
 10
1.975555521418156
 20
198.5786212000731
 30
0.0
 10
1.411111110758333
 20
198.0141767894133
 30
0.0
 10
1.411111110758333
 20
197.3086212340341
 30
0.0
 10
1.411111110758333
 20
196.6030655104374
 30
0.0
 10
1.975555521418156
 20
196.0386212679951
 30
0.0
 10
2.681111076797323
 20
196.0386212679951
 30
0.0
 10
3.386666800394043
 20
196.0386212679951
 30
0.0
 10
3.951111042836312
 20
196.6030658468725
 30
0.0
 10
3.951111042836312
 20
197.3086212340341
 30
0.0
 10
3.951111042836312
 20
198.0141766211957
 30
0.0
 10
3.386666800394043
 20
198.5786212000731
 30
0.0
 10
2.681111076797323
 20
198.5786212000731
 30
0.0
 10
2.681111076797323
 20
198.5786212000731
 30
0.0
 10
2.681111076797323
 20
198.5786212000731
 30
0.0
 10
2.681111076797323
 20
198.5786212000731
 30
0.0
  0
HATCH
  5
5B
330
55
100
AcDbEntity
  8
Layer 1
 62
     7
420
 16777215
100
AcDbHatch
 10
0.0
 20
0.0
 30
0.0
210
0.0
220
0.0
230
1.0
  2
SOLID
 70
     1
 71
     0
 91
        2
 92
        1
 93
        1
 72
     4
 94
        3
 73
     0
 74
     1
 95
       20
 96
       16
 40
0.0
 40
0.0
 40
0.0
 40
0.0
 40
1.0
 40
1.0
 40
1.0
 40
2.0
 40
2.0
 40
2.0
 40
3.0
 40
3.0
 40
3.0
 40
4.0
 40
4.0
 40
4.0
 40
5.0
 40
5.0
 40
5.0
 40
5.0
 10
2.681111076797323
 20
198.5786212000731
 10
1.975555521418156
 20
198.5786212000731
 10
1.411111110758333
 20
198.0141767894133
 10
1.411111110758333
 20
197.3086212340341
 10
1.411111110758333
 20
196.6030655104374
 10
1.975555521418156
 20
196.0386212679951
 10
2.681111076797323
 20
196.0386212679951
 10
3.386666800394043
 20
196.0386212679951
 10
3.951111042836312
 20
196.6030658468725
 10
3.951111042836312
 20
197.3086212340341
 10
3.951111042836312
 20
198.0141766211957
 10
3.386666800394043
 20
198.5786212000731
 10
2.681111076797323
 20
198.5786212000731
 10
2.681111076797323
 20
198.5786212000731
 10
2.681111076797323
 20
198.5786212000731
 10
2.681111076797323
 20
198.5786212000731
 97
        0
 97
        0
 92
        1
 93
        2
 72
     4
 94
        3
 73
     0
 74
     0
 95
       17
 96
       13
 40
0.0
 40
0.0
 40
0.0
 40
0.0
 40
0.3527777776895833
 40
0.3527777776895833
 40
0.3527777776895833
 40
0.7055555553791667
 40
0.7055555553791667
 40
0.7055555553791667
 40
1.05833333306875
 40
1.05833333306875
 40
1.05833333306875
 40
1.411111110758333
 40
1.411111110758333
 40
1.411111110758333
 40
1.411111110758333
 10
2.681111076797323
 20
198.5080657118222
 10
3.316110975708041
 20
198.5080657118222
 10
3.845277642242416
 20
197.9788990452878
 10
3.845277642242416
 20
197.3438989781596
 10
3.845277642242416
 20
196.7088989110313
 10
3.316110975708041
 20
196.1797322444969
 10
2.68111090857977
 20
196.1797322444969
 10
2.046110841451499
 20
196.1797322444969
 10
1.481666599009229
 20
196.6736213351234
 10
1.481666599009229
 20
197.3086212340341
 10
1.481666599009229
 20
197.9436211329448
 10
2.046111177886605
 20
198.5080657118222
 10
2.681111076797323
 20
198.5080657118222
 97
        0
 72
     1
 10
2.681111076797323
 20
198.5080657118222
 11
2.681111076797323
 21
198.5080657118222
 97
        0
 75
     2
 76
     1
 98
        0
  0
ENDBLK
  5
58
330
55
100
AcDbEntity
  8
0
100
AcDbBlockEnd
  0
BLOCK
  5
5E
330
5C
100
AcDbEntity
  8
0
100
AcDbBlockBegin
  2
block 4
 70
     0
 10
0.0
 20
0.0
 30
0.0
  3
block 4
  1

  0
SPLINE
  5
60
330
5C
100
AcDbEntity
  8
Layer 1
370
     0
100
AcDbSpline
210
0.0
220
0.0
230
1.0
 70
    11
 71
     3
 72
    17
 73
    13
 74
     0
 42
0.0000000001
 43
0.0000000001
 12
1.0
 22
0.0
 32
0.0
 13
1.0
 23
0.0
 33
0.0
 40
0.0
 40
0.0
 40
0.0
 40
0.0
 40
1.0
 40
1.0
 40
1.0
 40
2.0
 40
2.0
 40
2.0
 40
3.0
 40
3.0
 40
3.0
 40
4.0
 40
4.0
 40
4.0
 40
4.0
 10
33.01999945344883
 20
198.5080657118222
 30
0.0
 10
33.65500052988242
 20
198.5080657118222
 30
0.0
 10
34.18416719641679
 20
197.9788990452878
 30
0.0
 10
34.18416719641679
 20
197.3438989781596
 30
0.0
 10
34.18416719641679
 20
196.7088989110313
 30
0.0
 10
33.65500052988242
 20
196.1797322444969
 30
0.0
 10
33.01999945344883
 20
196.1797322444969
 30
0.0
 10
32.38499837701524
 20
196.1797322444969
 30
0.0
 10
31.85583171048087
 20
196.7088989110313
 30
0.0
 10
31.85583171048087
 20
197.3438989781596
 30
0.0
 10
31.85583171048087
 20
197.9788990452878
 30
0.0
 10
32.38500106849609
 20
198.5080657118222
 30
0.0
 10
33.01999945344883
 20
198.5080657118222
 30
0.0
  0
SPLINE
  5
61
330
5C
100
AcDbEntity
  8
Layer 1
370
     0
100
AcDbSpline
210
0.0
220
0.0
230
1.0
 70
    11
 71
     3
 72
    20
 73
    16
 74
     0
 42
0.0000000001
 43
0.0000000001
 12
1.0
 22
0.0
 32
0.0
 13
1.0
 23
0.0
 33
0.0
 40
0.0
 40
0.0
 40
0.0
 40
0.0
 40
1.0
 40
1.0
 40
1.0
 40
2.0
 40
2.0
 40
2.0
 40
3.0
 40
3.0
 40
3.0
 40
4.0
 40
4.0
 40
4.0
 40
5.0
 40
5.0
 40
5.0
 40
5.0
 10
33.01999945344883
 20
198.5786212000731
 30
0.0
 10
32.31444389806966
 20
198.5786212000731
 30
0.0
 10
31.7499999920625
 20
198.0141767894133
 30
0.0
 10
31.7499999920625
 20
197.3086212340341
 30
0.0
 10
31.7499999920625
 20
196.6030655104374
 30
0.0
 10
32.31444389806966
 20
196.0386212679951
 30
0.0
 10
33.01999945344883
 20
196.0386212679951
 30
0.0
 10
33.725555008828
 20
196.0386212679951
 30
0.0
 10
34.28999891483516
 20
196.6030658468725
 30
0.0
 10
34.28999891483516
 20
197.3086212340341
 30
0.0
 10
34.28999891483516
 20
198.0141766211957
 30
0.0
 10
33.725555008828
 20
198.5786212000731
 30
0.0
 10
33.01999945344883
 20
198.5786212000731
 30
0.0
 10
33.01999945344883
 20
198.5786212000731
 30
0.0
 10
33.01999945344883
 20
198.5786212000731
 30
0.0
 10
33.01999945344883
 20
198.5786212000731
 30
0.0
  0
HATCH
  5
62
330
5C
100
AcDbEntity
  8
Layer 1
 62
     7
420
 16777215
100
AcDbHatch
 10
0.0
 20
0.0
 30
0.0
210
0.0
220
0.0
230
1.0
  2
SOLID
 70
     1
 71
     0
 91
        2
 92
        1
 93
        1
 72
     4
 94
        3
 73
     0
 74
     1
 95
       20
 96
       16
 40
0.0
 40
0.0
 40
0.0
 40
0.0
 40
1.0
 40
1.0
 40
1.0
 40
2.0
 40
2.0
 40
2.0
 40
3.0
 40
3.0
 40
3.0
 40
4.0
 40
4.0
 40
4.0
 40
5.0
 40
5.0
 40
5.0
 40
5.0
 10
33.01999945344883
 20
198.5786212000731
 10
32.31444389806966
 20
198.5786212000731
 10
31.7499999920625
 20
198.0141767894133
 10
31.7499999920625
 20
197.3086212340341
 10
31.7499999920625
 20
196.6030655104374
 10
32.31444389806966
 20
196.0386212679951
 10
33.01999945344883
 20
196.0386212679951
 10
33.725555008828
 20
196.0386212679951
 10
34.28999891483516
 20
196.6030658468725
 10
34.28999891483516
 20
197.3086212340341
 10
34.28999891483516
 20
198.0141766211957
 10
33.725555008828
 20
198.5786212000731
 10
33.01999945344883
 20
198.5786212000731
 10
33.01999945344883
 20
198.5786212000731
 10
33.01999945344883
 20
198.5786212000731
 10
33.01999945344883
 20
198.5786212000731
 97
        0
 97
        0
 92
        1
 93
        2
 72
     4
 94
        3
 73
     0
 74
     0
 95
       17
 96
       13
 40
0.0
 40
0.0
 40
0.0
 40
0.0
 40
0.3527777776895833
 40
0.3527777776895833
 40
0.3527777776895833
 40
0.7055555553791667
 40
0.7055555553791667
 40
0.7055555553791667
 40
1.05833333306875
 40
1.05833333306875
 40
1.05833333306875
 40
1.411111110758333
 40
1.411111110758333
 40
1.411111110758333
 40
1.411111110758333
 10
33.01999945344883
 20
198.5080657118222
 10
33.65500052988242
 20
198.5080657118222
 10
34.18416719641679
 20
197.9788990452878
 10
34.18416719641679
 20
197.3438989781596
 10
34.18416719641679
 20
196.7088989110313
 10
33.65500052988242
 20
196.1797322444969
 10
33.01999945344883
 20
196.1797322444969
 10
32.38499837701524
 20
196.1797322444969
 10
31.85583171048087
 20
196.7088989110313
 10
31.85583171048087
 20
197.3438989781596
 10
31.85583171048087
 20
197.9788990452878
 10
32.38500106849609
 20
198.5080657118222
 10
33.01999945344883
 20
198.5080657118222
 97
        0
 72
     1
 10
33.01999945344883
 20
198.5080657118222
 11
33.01999945344883
 21
198.5080657118222
 97
        0
 75
     2
 76
     1
 98
        0
  0
ENDBLK
  5
5F
330
5C
100
AcDbEntity
  8
0
100
AcDbBlockEnd
  0
BLOCK
  5
65
330
63
100
AcDbEntity
  8
0
100
AcDbBlockBegin
  2
block 5
 70
     0
 10
0.0
 20
0.0
 30
0.0
  3
block 5
  1

  0
SPLINE
  5
67
330
63
100
AcDbEntity
  8
Layer 1
370
     0
100
AcDbSpline
210
0.0
220
0.0
230
1.0
 70
    11
 71
     3
 72
    17
 73
    13
 74
     0
 42
0.0000000001
 43
0.0000000001
 12
1.0
 22
0.0
 32
0.0
 13
1.0
 23
0.0
 33
0.0
 40
0.0
 40
0.0
 40
0.0
 40
0.0
 40
1.0
 40
1.0
 40
1.0
 40
2.0
 40
2.0
 40
2.0
 40
3.0
 40
3.0
 40
3.0
 40
4.0
 40
4.0
 40
4.0
 40
4.0
 10
33.01999945344883
 20
174.5191778382358
 30
0.0
 10
33.65500052988242
 20
174.5191778382358
 30
0.0
 10
34.18416719641679
 20
173.9900111717015
 30
0.0
 10
34.18416719641679
 20
173.3550100952679
 30
0.0
 10
34.18416719641679
 20
172.7200090188343
 30
0.0
 10
33.65500052988242
 20
172.1908423522999
 30
0.0
 10
33.01999945344883
 20
172.1908423522999
 30
0.0
 10
32.38499837701524
 20
172.1908423522999
 30
0.0
 10
31.85583171048087
 20
172.7200090188343
 30
0.0
 10
31.85583171048087
 20
173.3550100952679
 30
0.0
 10
31.85583171048087
 20
173.9900111717015
 30
0.0
 10
32.38500106849609
 20
174.5191778382358
 30
0.0
 10
33.01999945344883
 20
174.5191778382358
 30
0.0
  0
SPLINE
  5
68
330
63
100
AcDbEntity
  8
Layer 1
370
     0
100
AcDbSpline
210
0.0
220
0.0
230
1.0
 70
    11
 71
     3
 72
    20
 73
    16
 74
     0
 42
0.0000000001
 43
0.0000000001
 12
1.0
 22
0.0
 32
0.0
 13
1.0
 23
0.0
 33
0.0
 40
0.0
 40
0.0
 40
0.0
 40
0.0
 40
1.0
 40
1.0
 40
1.0
 40
2.0
 40
2.0
 40
2.0
 40
3.0
 40
3.0
 40
3.0
 40
4.0
 40
4.0
 40
4.0
 40
5.0
 40
5.0
 40
5.0
 40
5.0
 10
33.01999945344883
 20
174.5897323171814
 30
0.0
 10
32.31444389806966
 20
174.5897323171814
 30
0.0
 10
31.7499999920625
 20
174.0252884111743
 30
0.0
 10
31.7499999920625
 20
173.3197328557951
 30
0.0
 10
31.7499999920625
 20
172.6141773004159
 30
0.0
 10
32.31444389806966
 20
172.0497333944088
 30
0.0
 10
33.01999945344883
 20
172.0497333944088
 30
0.0
 10
33.725555008828
 20
172.0497333944088
 30
0.0
 10
34.28999891483516
 20
172.6141773004159
 30
0.0
 10
34.28999891483516
 20
173.3197328557951
 30
0.0
 10
34.28999891483516
 20
174.0252884111743
 30
0.0
 10
33.725555008828
 20
174.5897323171814
 30
0.0
 10
33.01999945344883
 20
174.5897323171814
 30
0.0
 10
33.01999945344883
 20
174.5897323171814
 30
0.0
 10
33.01999945344883
 20
174.5897323171814
 30
0.0
 10
33.01999945344883
 20
174.5897323171814
 30
0.0
  0
HATCH
  5
69
330
63
100
AcDbEntity
  8
Layer 1
 62
     7
420
 16777215
100
AcDbHatch
 10
0.0
 20
0.0
 30
0.0
210
0.0
220
0.0
230
1.0
  2
SOLID
 70
     1
 71
     0
 91
        2
 92
        1
 93
        1
 72
     4
 94
        3
 73
     0
 74
     1
 95
       20
 96
       16
 40
0.0
 40
0.0
 40
0.0
 40
0.0
 40
1.0
 40
1.0
 40
1.0
 40
2.0
 40
2.0
 40
2.0
 40
3.0
 40
3.0
 40
3.0
 40
4.0
 40
4.0
 40
4.0
 40
5.0
 40
5.0
 40
5.0
 40
5.0
 10
33.01999945344883
 20
174.5897323171814
 10
32.31444389806966
 20
174.5897323171814
 10
31.7499999920625
 20
174.0252884111743
 10
31.7499999920625
 20
173.3197328557951
 10
31.7499999920625
 20
172.6141773004159
 10
32.31444389806966
 20
172.0497333944088
 10
33.01999945344883
 20
172.0497333944088
 10
33.725555008828
 20
172.0497333944088
 10
34.28999891483516
 20
172.6141773004159
 10
34.28999891483516
 20
173.3197328557951
 10
34.28999891483516
 20
174.0252884111743
 10
33.725555008828
 20
174.5897323171814
 10
33.01999945344883
 20
174.5897323171814
 10
33.01999945344883
 20
174.5897323171814
 10
33.01999945344883
 20
174.5897323171814
 10
33.01999945344883
 20
174.5897323171814
 97
        0
 97
        0
 92
        1
 93
        2
 72
     4
 94
        3
 73
     0
 74
     0
 95
       17
 96
       13
 40
0.0
 40
0.0
 40
0.0
 40
0.0
 40
0.3527777776895833
 40
0.3527777776895833
 40
0.3527777776895833
 40
0.7055555553791667
 40
0.7055555553791667
 40
0.7055555553791667
 40
1.05833333306875
 40
1.05833333306875
 40
1.05833333306875
 40
1.411111110758333
 40
1.411111110758333
 40
1.411111110758333
 40
1.411111110758333
 10
33.01999945344883
 20
174.5191778382358
 10
33.65500052988242
 20
174.5191778382358
 10
34.18416719641679
 20
173.9900111717015
 10
34.18416719641679
 20
173.3550100952679
 10
34.18416719641679
 20
172.7200090188343
 10
33.65500052988242
 20
172.1908423522999
 10
33.01999945344883
 20
172.1908423522999
 10
32.38499837701524
 20
172.1908423522999
 10
31.85583171048087
 20
172.7200090188343
 10
31.85583171048087
 20
173.3550100952679
 10
31.85583171048087
 20
173.9900111717015
 10
32.38500106849609
 20
174.5191778382358
 10
33.01999945344883
 20
174.5191778382358
 97
        0
 72
     1
 10
33.01999945344883
 20
174.5191778382358
 11
33.01999945344883
 21
174.5191778382358
 97
        0
 75
     2
 76
     1
 98
        0
  0
ENDBLK
  5
66
330
63
100
AcDbEntity
  8
0
100
AcDbBlockEnd
  0
BLOCK
  5
6C
330
6A
100
AcDbEntity
  8
0
100
AcDbBlockBegin
  2
block 6
 70
     0
 10
0.0
 20
0.0
 30
0.0
  3
block 6
  1

  0
SPLINE
  5
6E
330
6A
100
AcDbEntity
  8
Layer 1
370
     0
100
AcDbSpline
210
0.0
220
0.0
230
1.0
 70
    11
 71
     3
 72
    17
 73
    13
 74
     0
 42
0.0000000001
 43
0.0000000001
 12
1.0
 22
0.0
 32
0.0
 13
1.0
 23
0.0
 33
0.0
 40
0.0
 40
0.0
 40
0.0
 40
0.0
 40
1.0
 40
1.0
 40
1.0
 40
2.0
 40
2.0
 40
2.0
 40
3.0
 40
3.0
 40
3.0
 40
4.0
 40
4.0
 40
4.0
 40
4.0
 10
2.681111076797323
 20
174.5191778382358
 30
0.0
 10
3.316110975708041
 20
174.5191778382358
 30
0.0
 10
3.845277642242416
 20
173.9900111717015
 30
0.0
 10
3.845277642242416
 20
173.3550100952679
 30
0.0
 10
3.845277642242416
 20
172.7200090188343
 30
0.0
 10
3.316110975708041
 20
172.1908423522999
 30
0.0
 10
2.68111090857977
 20
172.1908423522999
 30
0.0
 10
2.046110841451499
 20
172.1908423522999
 30
0.0
 10
1.516944174917124
 20
172.7200090188343
 30
0.0
 10
1.516944174917124
 20
173.3550100952679
 30
0.0
 10
1.516944174917124
 20
173.9900111717015
 30
0.0
 10
2.046111177886605
 20
174.5191778382358
 30
0.0
 10
2.681111076797323
 20
174.5191778382358
 30
0.0
  0
SPLINE
  5
6F
330
6A
100
AcDbEntity
  8
Layer 1
370
     0
100
AcDbSpline
210
0.0
220
0.0
230
1.0
 70
    11
 71
     3
 72
    20
 73
    16
 74
     0
 42
0.0000000001
 43
0.0000000001
 12
1.0
 22
0.0
 32
0.0
 13
1.0
 23
0.0
 33
0.0
 40
0.0
 40
0.0
 40
0.0
 40
0.0
 40
1.0
 40
1.0
 40
1.0
 40
2.0
 40
2.0
 40
2.0
 40
3.0
 40
3.0
 40
3.0
 40
4.0
 40
4.0
 40
4.0
 40
5.0
 40
5.0
 40
5.0
 40
5.0
 10
2.681111076797323
 20
174.5897323171814
 30
0.0
 10
1.975555521418156
 20
174.5897323171814
 30
0.0
 10
1.411111110758333
 20
174.0252884111743
 30
0.0
 10
1.411111110758333
 20
173.3197328557951
 30
0.0
 10
1.411111110758333
 20
172.6141773004159
 30
0.0
 10
1.975555521418156
 20
172.0497333944088
 30
0.0
 10
2.681111076797323
 20
172.0497333944088
 30
0.0
 10
3.386666800394043
 20
172.0497333944088
 30
0.0
 10
3.951111042836312
 20
172.6141773004159
 30
0.0
 10
3.951111042836312
 20
173.3197328557951
 30
0.0
 10
3.951111042836312
 20
174.0252884111743
 30
0.0
 10
3.386666800394043
 20
174.5897323171814
 30
0.0
 10
2.681111076797323
 20
174.5897323171814
 30
0.0
 10
2.681111076797323
 20
174.5897323171814
 30
0.0
 10
2.681111076797323
 20
174.5897323171814
 30
0.0
 10
2.681111076797323
 20
174.5897323171814
 30
0.0
  0
HATCH
  5
70
330
6A
100
AcDbEntity
  8
Layer 1
 62
     7
420
 16777215
100
AcDbHatch
 10
0.0
 20
0.0
 30
0.0
210
0.0
220
0.0
230
1.0
  2
SOLID
 70
     1
 71
     0
 91
        2
 92
        1
 93
        1
 72
     4
 94
        3
 73
     0
 74
     1
 95
       20
 96
       16
 40
0.0
 40
0.0
 40
0.0
 40
0.0
 40
1.0
 40
1.0
 40
1.0
 40
2.0
 40
2.0
 40
2.0
 40
3.0
 40
3.0
 40
3.0
 40
4.0
 40
4.0
 40
4.0
 40
5.0
 40
5.0
 40
5.0
 40
5.0
 10
2.681111076797323
 20
174.5897323171814
 10
1.975555521418156
 20
174.5897323171814
 10
1.411111110758333
 20
174.0252884111743
 10
1.411111110758333
 20
173.3197328557951
 10
1.411111110758333
 20
172.6141773004159
 10
1.975555521418156
 20
172.0497333944088
 10
2.681111076797323
 20
172.0497333944088
 10
3.386666800394043
 20
172.0497333944088
 10
3.951111042836312
 20
172.6141773004159
 10
3.951111042836312
 20
173.3197328557951
 10
3.951111042836312
 20
174.0252884111743
 10
3.386666800394043
 20
174.5897323171814
 10
2.681111076797323
 20
174.5897323171814
 10
2.681111076797323
 20
174.5897323171814
 10
2.681111076797323
 20
174.5897323171814
 10
2.681111076797323
 20
174.5897323171814
 97
        0
 97
        0
 92
        1
 93
        2
 72
     4
 94
        3
 73
     0
 74
     0
 95
       17
 96
       13
 40
0.0
 40
0.0
 40
0.0
 40
0.0
 40
0.3527777776895833
 40
0.3527777776895833
 40
0.3527777776895833
 40
0.7055555553791667
 40
0.7055555553791667
 40
0.7055555553791667
 40
1.05833333306875
 40
1.05833333306875
 40
1.05833333306875
 40
1.411111110758333
 40
1.411111110758333
 40
1.411111110758333
 40
1.411111110758333
 10
2.681111076797323
 20
174.5191778382358
 10
3.316110975708041
 20
174.5191778382358
 10
3.845277642242416
 20
173.9900111717015
 10
3.845277642242416
 20
173.3550100952679
 10
3.845277642242416
 20
172.7200090188343
 10
3.316110975708041
 20
172.1908423522999
 10
2.68111090857977
 20
172.1908423522999
 10
2.046110841451499
 20
172.1908423522999
 10
1.516944174917124
 20
172.7200090188343
 10
1.516944174917124
 20
173.3550100952679
 10
1.516944174917124
 20
173.9900111717015
 10
2.046111177886605
 20
174.5191778382358
 10
2.681111076797323
 20
174.5191778382358
 97
        0
 72
     1
 10
2.681111076797323
 20
174.5191778382358
 11
2.681111076797323
 21
174.5191778382358
 97
        0
 75
     2
 76
     1
 98
        0
  0
ENDBLK
  5
6D
330
6A
100
AcDbEntity
  8
0
100
AcDbBlockEnd
  0
BLOCK
  5
73
330
71
100
AcDbEntity
  8
0
100
AcDbBlockBegin
  2
block 7
 70
     0
 10
0.0
 20
0.0
 30
0.0
  3
block 7
  1

  0
SPLINE
  5
75
330
71
100
AcDbEntity
  8
Layer 1
370
     0
100
AcDbSpline
210
0.0
220
0.0
230
1.0
 70
    11
 71
     3
 72
    17
 73
    13
 74
     0
 42
0.0000000001
 43
0.0000000001
 12
1.0
 22
0.0
 32
0.0
 13
1.0
 23
0.0
 33
0.0
 40
0.0
 40
0.0
 40
0.0
 40
0.0
 40
1.0
 40
1.0
 40
1.0
 40
2.0
 40
2.0
 40
2.0
 40
3.0
 40
3.0
 40
3.0
 40
4.0
 40
4.0
 40
4.0
 40
4.0
 10
12.35603951039266
 20
168.5219556175129
 30
0.0
 10
18.74131809401837
 20
168.5219556175129
 30
0.0
 10
23.96242893467612
 20
163.3008434311147
 30
0.0
 10
23.96242893467612
 20
156.9155661932295
 30
0.0
 10
23.96242893467612
 20
150.5302889553442
 30
0.0
 10
18.74131809401837
 20
145.309176768946
 30
0.0
 10
12.35603951039266
 20
145.309176768946
 30
0.0
 10
5.970760926766944
 20
145.309176768946
 30
0.0
 10
0.7496511637528948
 20
150.5302889553442
 30
0.0
 10
0.7496511637528948
 20
156.9155661932295
 30
0.0
 10
0.7496511637528948
 20
163.3008434311147
 30
0.0
 10
5.970762272507368
 20
168.5219556175129
 30
0.0
 10
12.35603951039266
 20
168.5219556175129
 30
0.0
  0
SPLINE
  5
76
330
71
100
AcDbEntity
  8
Layer 1
370
     0
100
AcDbSpline
210
0.0
220
0.0
230
1.0
 70
    11
 71
     3
 72
    20
 73
    16
 74
     0
 42
0.0000000001
 43
0.0000000001
 12
1.0
 22
0.0
 32
0.0
 13
1.0
 23
0.0
 33
0.0
 40
0.0
 40
0.0
 40
0.0
 40
0.0
 40
1.0
 40
1.0
 40
1.0
 40
2.0
 40
2.0
 40
2.0
 40
3.0
 40
3.0
 40
3.0
 40
4.0
 40
4.0
 40
4.0
 40
5.0
 40
5.0
 40
5.0
 40
5.0
 10
12.35603951039266
 20
168.5925100964585
 30
0.0
 10
5.900206784256473
 20
168.5925100964585
 30
0.0
 10
0.6790956071636184
 20
163.3713979100603
 30
0.0
 10
0.6790956071636184
 20
156.9155661932295
 30
0.0
 10
0.6790956071636184
 20
150.4597344763986
 30
0.0
 10
5.900206784256473
 20
145.2386222900004
 30
0.0
 10
12.35603951039266
 20
145.2386222900004
 30
0.0
 10
18.81187257296395
 20
145.2386222900004
 30
0.0
 10
24.0329834136217
 20
150.4597344763986
 30
0.0
 10
24.0329834136217
 20
156.9155661932295
 30
0.0
 10
24.0329834136217
 20
163.3713979100603
 30
0.0
 10
18.81187391870437
 20
168.5925100964585
 30
0.0
 10
12.35603951039266
 20
168.5925100964585
 30
0.0
 10
12.35603951039266
 20
168.5925100964585
 30
0.0
 10
12.35603951039266
 20
168.5925100964585
 30
0.0
 10
12.35603951039266
 20
168.5925100964585
 30
0.0
  0
HATCH
  5
77
330
71
100
AcDbEntity
  8
Layer 1
 62
     7
420
 16777215
100
AcDbHatch
 10
0.0
 20
0.0
 30
0.0
210
0.0
220
0.0
230
1.0
  2
SOLID
 70
     1
 71
     0
 91
        2
 92
        1
 93
        1
 72
     4
 94
        3
 73
     0
 74
     1
 95
       20
 96
       16
 40
0.0
 40
0.0
 40
0.0
 40
0.0
 40
1.0
 40
1.0
 40
1.0
 40
2.0
 40
2.0
 40
2.0
 40
3.0
 40
3.0
 40
3.0
 40
4.0
 40
4.0
 40
4.0
 40
5.0
 40
5.0
 40
5.0
 40
5.0
 10
12.35603951039266
 20
168.5925100964585
 10
5.900206784256473
 20
168.5925100964585
 10
0.6790956071636184
 20
163.3713979100603
 10
0.6790956071636184
 20
156.9155661932295
 10
0.6790956071636184
 20
150.4597344763986
 10
5.900206784256473
 20
145.2386222900004
 10
12.35603951039266
 20
145.2386222900004
 10
18.81187257296395
 20
145.2386222900004
 10
24.0329834136217
 20
150.4597344763986
 10
24.0329834136217
 20
156.9155661932295
 10
24.0329834136217
 20
163.3713979100603
 10
18.81187391870437
 20
168.5925100964585
 10
12.35603951039266
 20
168.5925100964585
 10
12.35603951039266
 20
168.5925100964585
 10
12.35603951039266
 20
168.5925100964585
 10
12.35603951039266
 20
168.5925100964585
 97
        0
 97
        0
 92
        1
 93
        2
 72
     4
 94
        3
 73
     0
 74
     0
 95
       17
 96
       13
 40
0.0
 40
0.0
 40
0.0
 40
0.0
 40
0.3527777776895833
 40
0.3527777776895833
 40
0.3527777776895833
 40
0.7055555553791667
 40
0.7055555553791667
 40
0.7055555553791667
 40
1.05833333306875
 40
1.05833333306875
 40
1.05833333306875
 40
1.411111110758333
 40
1.411111110758333
 40
1.411111110758333
 40
1.411111110758333
 10
12.35603951039266
 20
168.5219556175129
 10
18.74131809401837
 20
168.5219556175129
 10
23.96242893467612
 20
163.3008434311147
 10
23.96242893467612
 20
156.9155661932295
 10
23.96242893467612
 20
150.5302889553442
 10
18.74131809401837
 20
145.309176768946
 10
12.35603951039266
 20
145.309176768946
 10
5.970760926766944
 20
145.309176768946
 10
0.7496511637528948
 20
150.5302889553442
 10
0.7496511637528948
 20
156.9155661932295
 10
0.7496511637528948
 20
163.3008434311147
 10
5.970762272507368
 20
168.5219556175129
 10
12.35603951039266
 20
168.5219556175129
 97
        0
 72
     1
 10
12.35603951039266
 20
168.5219556175129
 11
12.35603951039266
 21
168.5219556175129
 97
        0
 75
     2
 76
     1
 98
        0
  0
ENDBLK
  5
74
330
71
100
AcDbEntity
  8
0
100
AcDbBlockEnd
  0
BLOCK
  5
7A
330
78
100
AcDbEntity
  8
0
100
AcDbBlockBegin
  2
block 8
 70
     0
 10
0.0
 20
0.0
 30
0.0
  3
block 8
  1

  0
POLYLINE
  5
7C
330
78
100
AcDbEntity
  8
Layer 1
370
     0
100
AcDb2dPolyline
 66
     1
 10
0.0
 20
0.0
 30
0.0
  0
VERTEX
  5
7D
330
7C
100
AcDbEntity
  8
Layer 1
370
     0
100
AcDbVertex
100
AcDb2dVertex
 10
71.0494422734974
 20
199.9544545325368
 30
0.0
  0
VERTEX
  5
7E
330
7C
100
AcDbEntity
  8
Layer 1
370
     0
100
AcDbVertex
100
AcDb2dVertex
 10
71.0494422734974
 20
170.9208428909136
 30
0.0
  0
VERTEX
  5
7F
330
7C
100
AcDbEntity
  8
Layer 1
370
     0
100
AcDbVertex
100
AcDb2dVertex
 10
35.66583278612071
 20
170.9208428909136
 30
0.0
  0
VERTEX
  5
80
330
7C
100
AcDbEntity
  8
Layer 1
370
     0
100
AcDbVertex
100
AcDb2dVertex
 10
35.66583278612071
 20
199.9544545325368
 30
0.0
  0
VERTEX
  5
81
330
7C
100
AcDbEntity
  8
Layer 1
370
     0
100
AcDbVertex
100
AcDb2dVertex
 10
71.0494422734974
 20
199.9544545325368
 30
0.0
  0
SEQEND
  5
82
330
7C
100
AcDbEntity
  8
Layer 1
370
     0
  0
POLYLINE
  5
83
330
78
100
AcDbEntity
  8
Layer 1
370
     0
100
AcDb2dPolyline
 66
     1
 10
0.0
 20
0.0
 30
0.0
  0
VERTEX
  5
84
330
83
100
AcDbEntity
  8
Layer 1
370
     0
100
AcDbVertex
100
AcDb2dVertex
 10
71.15527668339662
 20
200.0602878674207
 30
0.0
  0
VERTEX
  5
85
330
83
100
AcDbEntity
  8
Layer 1
370
     0
100
AcDbVertex
100
AcDb2dVertex
 10
35.59527830717513
 20
200.0602878674207
 30
0.0
  0
VERTEX
  5
86
330
83
100
AcDbEntity
  8
Layer 1
370
     0
100
AcDbVertex
100
AcDb2dVertex
 10
35.59527830717513
 20
170.8502857204872
 30
0.0
  0
VERTEX
  5
87
330
83
100
AcDbEntity
  8
Layer 1
370
     0
100
AcDbVertex
100
AcDb2dVertex
 10
71.15528206635832
 20
170.8502857204872
 30
0.0
  0
VERTEX
  5
88
330
83
100
AcDbEntity
  8
Layer 1
370
     0
100
AcDbVertex
100
AcDb2dVertex
 10
71.15527668339662
 20
200.0602878674207
 30
0.0
  0
VERTEX
  5
89
330
83
100
AcDbEntity
  8
Layer 1
370
     0
100
AcDbVertex
100
AcDb2dVertex
 10
71.15527668339662
 20
200.0602878674207
 30
0.0
  0
SEQEND
  5
8A
330
83
100
AcDbEntity
  8
Layer 1
370
     0
  0
HATCH
  5
8B
330
78
100
AcDbEntity
  8
Layer 1
 62
     7
420
 16777215
100
AcDbHatch
 10
0.0
 20
0.0
 30
0.0
210
0.0
220
0.0
230
1.0
  2
SOLID
 70
     1
 71
     0
 91
        2
 92
        1
 93
        4
 72
     1
 10
71.15527668339662
 20
200.0602878674207
 11
35.59527830717513
 21
200.0602878674207
 72
     1
 10
35.59527830717513
 20
200.0602878674207
 11
35.59527830717513
 21
170.8502857204872
 72
     1
 10
35.59527830717513
 20
170.8502857204872
 11
71.15528206635832
 21
170.8502857204872
 72
     1
 10
71.15528206635832
 20
170.8502857204872
 11
71.15527668339662
 21
200.0602878674207
 97
        0
 92
        1
 93
        4
 72
     1
 10
71.0494422734974
 20
199.9544545325368
 11
71.0494422734974
 21
170.9208428909136
 72
     1
 10
71.0494422734974
 20
170.9208428909136
 11
35.6658327861207
 21
170.9208428909136
 72
     1
 10
35.66583278612071
 20
170.9208428909136
 11
35.66583278612071
 21
199.9544545325368
 72
     1
 10
35.66583278612071
 20
199.9544545325368
 11
71.04944227349742
 21
199.9544545325368
 97
        0
 75
     2
 76
     1
 98
        0
  0
ENDBLK
  5
7B
330
78
100
AcDbEntity
  8
0
100
AcDbBlockEnd
  0
BLOCK
  5
8E
330
8C
100
AcDbEntity
  8
0
100
AcDbBlockBegin
  2
block 9
 70
     0
 10
0.0
 20
0.0
 30
0.0
  3
block 9
  1

  0
SPLINE
  5
90
330
8C
100
AcDbEntity
  8
Layer 1
370
     0
100
AcDbSpline
210
0.0
220
0.0
230
1.0
 70
    11
 71
     3
 72
    17
 73
    13
 74
     0
 42
0.0000000001
 43
0.0000000001
 12
1.0
 22
0.0
 32
0.0
 13
1.0
 23
0.0
 33
0.0
 40
0.0
 40
0.0
 40
0.0
 40
0.0
 40
1.0
 40
1.0
 40
1.0
 40
2.0
 40
2.0
 40
2.0
 40
3.0
 40
3.0
 40
3.0
 40
4.0
 40
4.0
 40
4.0
 40
4.0
 10
38.31166611879258
 20
198.1552879341326
 30
0.0
 10
38.77027830638138
 20
198.1552879341326
 30
0.0
 10
39.12305608407096
 20
197.7672324123176
 30
0.0
 10
39.12305608407096
 20
197.3086212340341
 30
0.0
 10
39.12305608407096
 20
196.8500102239682
 30
0.0
 10
38.77027830638138
 20
196.4619545339356
 30
0.0
 10
38.31166611879258
 20
196.4619545339356
 30
0.0
 10
37.85305393120378
 20
196.4619545339356
 30
0.0
 10
37.5002761535142
 20
196.8500102239682
 30
0.0
 10
37.5002761535142
 20
197.3086212340341
 30
0.0
 10
37.5002761535142
 20
197.7672322441
 30
0.0
 10
37.85305662268463
 20
198.1552879341326
 30
0.0
 10
38.31166611879258
 20
198.1552879341326
 30
0.0
  0
SPLINE
  5
91
330
8C
100
AcDbEntity
  8
Layer 1
370
     0
100
AcDbSpline
210
0.0
220
0.0
230
1.0
 70
    11
 71
     3
 72
    20
 73
    16
 74
     0
 42
0.0000000001
 43
0.0000000001
 12
1.0
 22
0.0
 32
0.0
 13
1.0
 23
0.0
 33
0.0
 40
0.0
 40
0.0
 40
0.0
 40
0.0
 40
1.0
 40
1.0
 40
1.0
 40
2.0
 40
2.0
 40
2.0
 40
3.0
 40
3.0
 40
3.0
 40
4.0
 40
4.0
 40
4.0
 40
5.0
 40
5.0
 40
5.0
 40
5.0
 10
38.31166611879258
 20
198.261121166509
 30
0.0
 10
37.817776691731
 20
198.261121166509
 30
0.0
 10
37.39444443509583
 20
197.8377877323509
 30
0.0
 10
37.39444443509583
 20
197.3086210658165
 30
0.0
 10
37.39444443509583
 20
196.7794543992822
 30
0.0
 10
37.78249945225821
 20
196.3561211333417
 30
0.0
 10
38.31166611879258
 20
196.3561211333417
 30
0.0
 10
38.80555554585417
 20
196.3561211333417
 30
0.0
 10
39.22888780248933
 20
196.7794543992822
 30
0.0
 10
39.22888780248933
 20
197.3086210658165
 30
0.0
 10
39.22888780248933
 20
197.8377877323509
 30
0.0
 10
38.80555554585417
 20
198.261121166509
 30
0.0
 10
38.31166611879258
 20
198.261121166509
 30
0.0
 10
38.31166611879258
 20
198.261121166509
 30
0.0
 10
38.31166611879258
 20
198.261121166509
 30
0.0
 10
38.31166611879258
 20
198.261121166509
 30
0.0
  0
HATCH
  5
92
330
8C
100
AcDbEntity
  8
Layer 1
 62
     7
420
 16777215
100
AcDbHatch
 10
0.0
 20
0.0
 30
0.0
210
0.0
220
0.0
230
1.0
  2
SOLID
 70
     1
 71
     0
 91
        2
 92
        1
 93
        1
 72
     4
 94
        3
 73
     0
 74
     1
 95
       20
 96
       16
 40
0.0
 40
0.0
 40
0.0
 40
0.0
 40
1.0
 40
1.0
 40
1.0
 40
2.0
 40
2.0
 40
2.0
 40
3.0
 40
3.0
 40
3.0
 40
4.0
 40
4.0
 40
4.0
 40
5.0
 40
5.0
 40
5.0
 40
5.0
 10
38.31166611879258
 20
198.261121166509
 10
37.817776691731
 20
198.261121166509
 10
37.39444443509583
 20
197.8377877323509
 10
37.39444443509583
 20
197.3086210658165
 10
37.39444443509583
 20
196.7794543992822
 10
37.78249945225821
 20
196.3561211333417
 10
38.31166611879258
 20
196.3561211333417
 10
38.80555554585417
 20
196.3561211333417
 10
39.22888780248933
 20
196.7794543992822
 10
39.22888780248933
 20
197.3086210658165
 10
39.22888780248933
 20
197.8377877323509
 10
38.80555554585417
 20
198.261121166509
 10
38.31166611879258
 20
198.261121166509
 10
38.31166611879258
 20
198.261121166509
 10
38.31166611879258
 20
198.261121166509
 10
38.31166611879258
 20
198.261121166509
 97
        0
 97
        0
 92
        1
 93
        2
 72
     4
 94
        3
 73
     0
 74
     0
 95
       17
 96
       13
 40
0.0
 40
0.0
 40
0.0
 40
0.0
 40
0.3527777776895833
 40
0.3527777776895833
 40
0.3527777776895833
 40
0.7055555553791667
 40
0.7055555553791667
 40
0.7055555553791667
 40
1.05833333306875
 40
1.05833333306875
 40
1.05833333306875
 40
1.411111110758333
 40
1.411111110758333
 40
1.411111110758333
 40
1.411111110758333
 10
38.31166611879258
 20
198.1552879341326
 10
38.77027830638138
 20
198.1552879341326
 10
39.12305608407096
 20
197.7672324123176
 10
39.12305608407096
 20
197.3086212340341
 10
39.12305608407096
 20
196.8500102239682
 10
38.77027830638138
 20
196.4619545339356
 10
38.31166611879258
 20
196.4619545339356
 10
37.85305393120378
 20
196.4619545339356
 10
37.5002761535142
 20
196.8500102239682
 10
37.5002761535142
 20
197.3086212340341
 10
37.5002761535142
 20
197.7672322441
 10
37.85305662268463
 20
198.1552879341326
 10
38.31166611879258
 20
198.1552879341326
 97
        0
 72
     1
 10
38.31166611879258
 20
198.1552879341326
 11
38.31166611879258
 21
198.1552879341326
 97
        0
 75
     2
 76
     1
 98
        0
  0
ENDBLK
  5
8F
330
8C
100
AcDbEntity
  8
0
100
AcDbBlockEnd
  0
BLOCK
  5
95
330
93
100
AcDbEntity
  8
0
100
AcDbBlockBegin
  2
block 10
 70
     0
 10
0.0
 20
0.0
 30
0.0
  3
block 10
  1

  0
SPLINE
  5
97
330
93
100
AcDbEntity
  8
Layer 1
370
     0
100
AcDbSpline
210
0.0
220
0.0
230
1.0
 70
    11
 71
     3
 72
    17
 73
    13
 74
     0
 42
0.0000000001
 43
0.0000000001
 12
1.0
 22
0.0
 32
0.0
 13
1.0
 23
0.0
 33
0.0
 40
0.0
 40
0.0
 40
0.0
 40
0.0
 40
1.0
 40
1.0
 40
1.0
 40
2.0
 40
2.0
 40
2.0
 40
3.0
 40
3.0
 40
3.0
 40
4.0
 40
4.0
 40
4.0
 40
4.0
 10
68.6505576915776
 20
198.1552879341326
 30
0.0
 10
69.1091698791664
 20
198.1552879341326
 30
0.0
 10
69.49722220484792
 20
197.7672324123176
 30
0.0
 10
69.49722220484792
 20
197.3086212340341
 30
0.0
 10
69.49722220484792
 20
196.8500102239682
 30
0.0
 10
69.1091644962047
 20
196.4619545339356
 30
0.0
 10
68.6505576915776
 20
196.4619545339356
 30
0.0
 10
68.1919455039888
 20
196.4619545339356
 30
0.0
 10
67.80389317830728
 20
196.8500102239682
 30
0.0
 10
67.80389317830728
 20
197.3086212340341
 30
0.0
 10
67.80389317830728
 20
197.7672322441
 30
0.0
 10
68.1919455039888
 20
198.1552879341326
 30
0.0
 10
68.6505576915776
 20
198.1552879341326
 30
0.0
  0
SPLINE
  5
98
330
93
100
AcDbEntity
  8
Layer 1
370
     0
100
AcDbSpline
210
0.0
220
0.0
230
1.0
 70
    11
 71
     3
 72
    20
 73
    16
 74
     0
 42
0.0000000001
 43
0.0000000001
 12
1.0
 22
0.0
 32
0.0
 13
1.0
 23
0.0
 33
0.0
 40
0.0
 40
0.0
 40
0.0
 40
0.0
 40
1.0
 40
1.0
 40
1.0
 40
2.0
 40
2.0
 40
2.0
 40
3.0
 40
3.0
 40
3.0
 40
4.0
 40
4.0
 40
4.0
 40
5.0
 40
5.0
 40
5.0
 40
5.0
 10
68.6505576915776
 20
198.261121166509
 30
0.0
 10
68.12139102504322
 20
198.261121166509
 30
0.0
 10
67.69805876840806
 20
197.8377877323509
 30
0.0
 10
67.69805876840806
 20
197.3086210658165
 30
0.0
 10
67.69805876840806
 20
196.7794543992822
 30
0.0
 10
68.12139102504322
 20
196.3561211333417
 30
0.0
 10
68.6505576915776
 20
196.3561211333417
 30
0.0
 10
69.17972435811197
 20
196.3561211333417
 30
0.0
 10
69.60305661474713
 20
196.7794543992822
 30
0.0
 10
69.60305661474713
 20
197.3086210658165
 30
0.0
 10
69.60305661474713
 20
197.8377877323509
 30
0.0
 10
69.17972435811197
 20
198.261121166509
 30
0.0
 10
68.6505576915776
 20
198.261121166509
 30
0.0
 10
68.6505576915776
 20
198.261121166509
 30
0.0
 10
68.6505576915776
 20
198.261121166509
 30
0.0
 10
68.6505576915776
 20
198.261121166509
 30
0.0
  0
HATCH
  5
99
330
93
100
AcDbEntity
  8
Layer 1
 62
     7
420
 16777215
100
AcDbHatch
 10
0.0
 20
0.0
 30
0.0
210
0.0
220
0.0
230
1.0
  2
SOLID
 70
     1
 71
     0
 91
        2
 92
        1
 93
        1
 72
     4
 94
        3
 73
     0
 74
     1
 95
       20
 96
       16
 40
0.0
 40
0.0
 40
0.0
 40
0.0
 40
1.0
 40
1.0
 40
1.0
 40
2.0
 40
2.0
 40
2.0
 40
3.0
 40
3.0
 40
3.0
 40
4.0
 40
4.0
 40
4.0
 40
5.0
 40
5.0
 40
5.0
 40
5.0
 10
68.6505576915776
 20
198.261121166509
 10
68.12139102504322
 20
198.261121166509
 10
67.69805876840806
 20
197.8377877323509
 10
67.69805876840806
 20
197.3086210658165
 10
67.69805876840806
 20
196.7794543992822
 10
68.12139102504322
 20
196.3561211333417
 10
68.6505576915776
 20
196.3561211333417
 10
69.17972435811197
 20
196.3561211333417
 10
69.60305661474713
 20
196.7794543992822
 10
69.60305661474713
 20
197.3086210658165
 10
69.60305661474713
 20
197.8377877323509
 10
69.17972435811197
 20
198.261121166509
 10
68.6505576915776
 20
198.261121166509
 10
68.6505576915776
 20
198.261121166509
 10
68.6505576915776
 20
198.261121166509
 10
68.6505576915776
 20
198.261121166509
 97
        0
 97
        0
 92
        1
 93
        2
 72
     4
 94
        3
 73
     0
 74
     0
 95
       17
 96
       13
 40
0.0
 40
0.0
 40
0.0
 40
0.0
 40
0.3527777776895833
 40
0.3527777776895833
 40
0.3527777776895833
 40
0.7055555553791667
 40
0.7055555553791667
 40
0.7055555553791667
 40
1.05833333306875
 40
1.05833333306875
 40
1.05833333306875
 40
1.411111110758333
 40
1.411111110758333
 40
1.411111110758333
 40
1.411111110758333
 10
68.6505576915776
 20
198.1552879341326
 10
69.1091698791664
 20
198.1552879341326
 10
69.49722220484792
 20
197.7672324123176
 10
69.49722220484792
 20
197.3086212340341
 10
69.49722220484792
 20
196.8500102239682
 10
69.1091644962047
 20
196.4619545339356
 10
68.6505576915776
 20
196.4619545339356
 10
68.1919455039888
 20
196.4619545339356
 10
67.80389317830728
 20
196.8500102239682
 10
67.80389317830728
 20
197.3086212340341
 10
67.80389317830728
 20
197.7672322441
 10
68.1919455039888
 20
198.1552879341326
 10
68.6505576915776
 20
198.1552879341326
 97
        0
 72
     1
 10
68.6505576915776
 20
198.1552879341326
 11
68.6505576915776
 21
198.1552879341326
 97
        0
 75
     2
 76
     1
 98
        0
  0
ENDBLK
  5
96
330
93
100
AcDbEntity
  8
0
100
AcDbBlockEnd
  0
BLOCK
  5
9C
330
9A
100
AcDbEntity
  8
0
100
AcDbBlockBegin
  2
block 11
 70
     0
 10
0.0
 20
0.0
 30
0.0
  3
block 11
  1

  0
SPLINE
  5
9E
330
9A
100
AcDbEntity
  8
Layer 1
370
     0
100
AcDbSpline
210
0.0
220
0.0
230
1.0
 70
    11
 71
     3
 72
    17
 73
    13
 74
     0
 42
0.0000000001
 43
0.0000000001
 12
1.0
 22
0.0
 32
0.0
 13
1.0
 23
0.0
 33
0.0
 40
0.0
 40
0.0
 40
0.0
 40
0.0
 40
1.0
 40
1.0
 40
1.0
 40
2.0
 40
2.0
 40
2.0
 40
3.0
 40
3.0
 40
3.0
 40
4.0
 40
4.0
 40
4.0
 40
4.0
 10
68.6505576915776
 20
174.1664000605463
 30
0.0
 10
69.1091698791664
 20
174.1664000605463
 30
0.0
 10
69.49722220484792
 20
173.7783450433839
 30
0.0
 10
69.49722220484792
 20
173.3197328557951
 30
0.0
 10
69.49722220484792
 20
172.8611206682063
 30
0.0
 10
69.1091644962047
 20
172.4730656510439
 30
0.0
 10
68.6505576915776
 20
172.4730656510439
 30
0.0
 10
68.1919455039888
 20
172.4730656510439
 30
0.0
 10
67.80389317830728
 20
172.8611206682063
 30
0.0
 10
67.80389317830728
 20
173.3197328557951
 30
0.0
 10
67.80389317830728
 20
173.7783450433839
 30
0.0
 10
68.1919455039888
 20
174.1664000605463
 30
0.0
 10
68.6505576915776
 20
174.1664000605463
 30
0.0
  0
SPLINE
  5
9F
330
9A
100
AcDbEntity
  8
Layer 1
370
     0
100
AcDbSpline
210
0.0
220
0.0
230
1.0
 70
    11
 71
     3
 72
    20
 73
    16
 74
     0
 42
0.0000000001
 43
0.0000000001
 12
1.0
 22
0.0
 32
0.0
 13
1.0
 23
0.0
 33
0.0
 40
0.0
 40
0.0
 40
0.0
 40
0.0
 40
1.0
 40
1.0
 40
1.0
 40
2.0
 40
2.0
 40
2.0
 40
3.0
 40
3.0
 40
3.0
 40
4.0
 40
4.0
 40
4.0
 40
5.0
 40
5.0
 40
5.0
 40
5.0
 10
68.6505576915776
 20
174.2722317789646
 30
0.0
 10
68.12139102504322
 20
174.2722317789646
 30
0.0
 10
67.69805876840806
 20
173.8488995223295
 30
0.0
 10
67.69805876840806
 20
173.3197328557951
 30
0.0
 10
67.69805876840806
 20
172.7905661892607
 30
0.0
 10
68.12139102504322
 20
172.3672339326256
 30
0.0
 10
68.6505576915776
 20
172.3672339326256
 30
0.0
 10
69.17972435811197
 20
172.3672339326256
 30
0.0
 10
69.60305661474713
 20
172.7905661892607
 30
0.0
 10
69.60305661474713
 20
173.3197328557951
 30
0.0
 10
69.60305661474713
 20
173.8488995223295
 30
0.0
 10
69.17972435811197
 20
174.2722317789646
 30
0.0
 10
68.6505576915776
 20
174.2722317789646
 30
0.0
 10
68.6505576915776
 20
174.2722317789646
 30
0.0
 10
68.6505576915776
 20
174.2722317789646
 30
0.0
 10
68.6505576915776
 20
174.2722317789646
 30
0.0
  0
HATCH
  5
A0
330
9A
100
AcDbEntity
  8
Layer 1
 62
     7
420
 16777215
100
AcDbHatch
 10
0.0
 20
0.0
 30
0.0
210
0.0
220
0.0
230
1.0
  2
SOLID
 70
     1
 71
     0
 91
        2
 92
        1
 93
        1
 72
     4
 94
        3
 73
     0
 74
     1
 95
       20
 96
       16
 40
0.0
 40
0.0
 40
0.0
 40
0.0
 40
1.0
 40
1.0
 40
1.0
 40
2.0
 40
2.0
 40
2.0
 40
3.0
 40
3.0
 40
3.0
 40
4.0
 40
4.0
 40
4.0
 40
5.0
 40
5.0
 40
5.0
 40
5.0
 10
68.6505576915776
 20
174.2722317789646
 10
68.12139102504322
 20
174.2722317789646
 10
67.69805876840806
 20
173.8488995223295
 10
67.69805876840806
 20
173.3197328557951
 10
67.69805876840806
 20
172.7905661892607
 10
68.12139102504322
 20
172.3672339326256
 10
68.6505576915776
 20
172.3672339326256
 10
69.17972435811197
 20
172.3672339326256
 10
69.60305661474713
 20
172.7905661892607
 10
69.60305661474713
 20
173.3197328557951
 10
69.60305661474713
 20
173.8488995223295
 10
69.17972435811197
 20
174.2722317789646
 10
68.6505576915776
 20
174.2722317789646
 10
68.6505576915776
 20
174.2722317789646
 10
68.6505576915776
 20
174.2722317789646
 10
68.6505576915776
 20
174.2722317789646
 97
        0
 97
        0
 92
        1
 93
        2
 72
     4
 94
        3
 73
     0
 74
     0
 95
       17
 96
       13
 40
0.0
 40
0.0
 40
0.0
 40
0.0
 40
0.3527777776895833
 40
0.3527777776895833
 40
0.3527777776895833
 40
0.7055555553791667
 40
0.7055555553791667
 40
0.7055555553791667
 40
1.05833333306875
 40
1.05833333306875
 40
1.05833333306875
 40
1.411111110758333
 40
1.411111110758333
 40
1.411111110758333
 40
1.411111110758333
 10
68.6505576915776
 20
174.1664000605463
 10
69.1091698791664
 20
174.1664000605463
 10
69.49722220484792
 20
173.7783450433839
 10
69.49722220484792
 20
173.3197328557951
 10
69.49722220484792
 20
172.8611206682063
 10
69.1091644962047
 20
172.4730656510439
 10
68.6505576915776
 20
172.4730656510439
 10
68.1919455039888
 20
172.4730656510439
 10
67.80389317830728
 20
172.8611206682063
 10
67.80389317830728
 20
173.3197328557951
 10
67.80389317830728
 20
173.7783450433839
 10
68.1919455039888
 20
174.1664000605463
 10
68.6505576915776
 20
174.1664000605463
 97
        0
 72
     1
 10
68.6505576915776
 20
174.1664000605463
 11
68.6505576915776
 21
174.1664000605463
 97
        0
 75
     2
 76
     1
 98
        0
  0
ENDBLK
  5
9D
330
9A
100
AcDbEntity
  8
0
100
AcDbBlockEnd
  0
BLOCK
  5
A3
330
A1
100
AcDbEntity
  8
0
100
AcDbBlockBegin
  2
block 12
 70
     0
 10
0.0
 20
0.0
 30
0.0
  3
block 12
  1

  0
SPLINE
  5
A5
330
A1
100
AcDbEntity
  8
Layer 1
370
     0
100
AcDbSpline
210
0.0
220
0.0
230
1.0
 70
    11
 71
     3
 72
    17
 73
    13
 74
     0
 42
0.0000000001
 43
0.0000000001
 12
1.0
 22
0.0
 32
0.0
 13
1.0
 23
0.0
 33
0.0
 40
0.0
 40
0.0
 40
0.0
 40
0.0
 40
1.0
 40
1.0
 40
1.0
 40
2.0
 40
2.0
 40
2.0
 40
3.0
 40
3.0
 40
3.0
 40
4.0
 40
4.0
 40
4.0
 40
4.0
 10
38.31166611879258
 20
174.1664000605463
 30
0.0
 10
38.77027830638138
 20
174.1664000605463
 30
0.0
 10
39.15833332354375
 20
173.7783450433839
 30
0.0
 10
39.15833332354375
 20
173.3197328557951
 30
0.0
 10
39.15833332354375
 20
172.8611206682063
 30
0.0
 10
38.77027830638138
 20
172.4730656510439
 30
0.0
 10
38.31166611879258
 20
172.4730656510439
 30
0.0
 10
37.85305393120378
 20
172.4730656510439
 30
0.0
 10
37.46499891404141
 20
172.8611206682063
 30
0.0
 10
37.46499891404141
 20
173.3197328557951
 30
0.0
 10
37.46499891404141
 20
173.7783450433839
 30
0.0
 10
37.85305662268463
 20
174.1664000605463
 30
0.0
 10
38.31166611879258
 20
174.1664000605463
 30
0.0
  0
SPLINE
  5
A6
330
A1
100
AcDbEntity
  8
Layer 1
370
     0
100
AcDbSpline
210
0.0
220
0.0
230
1.0
 70
    11
 71
     3
 72
    20
 73
    16
 74
     0
 42
0.0000000001
 43
0.0000000001
 12
1.0
 22
0.0
 32
0.0
 13
1.0
 23
0.0
 33
0.0
 40
0.0
 40
0.0
 40
0.0
 40
0.0
 40
1.0
 40
1.0
 40
1.0
 40
2.0
 40
2.0
 40
2.0
 40
3.0
 40
3.0
 40
3.0
 40
4.0
 40
4.0
 40
4.0
 40
5.0
 40
5.0
 40
5.0
 40
5.0
 10
38.31166611879258
 20
174.2722317789646
 30
0.0
 10
37.78249945225821
 20
174.2722317789646
 30
0.0
 10
37.35916719562304
 20
173.8488995223295
 30
0.0
 10
37.35916719562304
 20
173.3197328557951
 30
0.0
 10
37.35916719562304
 20
172.7905661892607
 30
0.0
 10
37.78249945225821
 20
172.3672339326256
 30
0.0
 10
38.31166611879258
 20
172.3672339326256
 30
0.0
 10
38.84083278532696
 20
172.3672339326256
 30
0.0
 10
39.26416504196212
 20
172.7905661892607
 30
0.0
 10
39.26416504196212
 20
173.3197328557951
 30
0.0
 10
39.26416773344297
 20
173.8488995223295
 30
0.0
 10
38.84083278532696
 20
174.2722317789646
 30
0.0
 10
38.31166611879258
 20
174.2722317789646
 30
0.0
 10
38.31166611879258
 20
174.2722317789646
 30
0.0
 10
38.31166611879258
 20
174.2722317789646
 30
0.0
 10
38.31166611879258
 20
174.2722317789646
 30
0.0
  0
HATCH
  5
A7
330
A1
100
AcDbEntity
  8
Layer 1
 62
     7
420
 16777215
100
AcDbHatch
 10
0.0
 20
0.0
 30
0.0
210
0.0
220
0.0
230
1.0
  2
SOLID
 70
     1
 71
     0
 91
        2
 92
        1
 93
        1
 72
     4
 94
        3
 73
     0
 74
     1
 95
       20
 96
       16
 40
0.0
 40
0.0
 40
0.0
 40
0.0
 40
1.0
 40
1.0
 40
1.0
 40
2.0
 40
2.0
 40
2.0
 40
3.0
 40
3.0
 40
3.0
 40
4.0
 40
4.0
 40
4.0
 40
5.0
 40
5.0
 40
5.0
 40
5.0
 10
38.31166611879258
 20
174.2722317789646
 10
37.78249945225821
 20
174.2722317789646
 10
37.35916719562304
 20
173.8488995223295
 10
37.35916719562304
 20
173.3197328557951
 10
37.35916719562304
 20
172.7905661892607
 10
37.78249945225821
 20
172.3672339326256
 10
38.31166611879258
 20
172.3672339326256
 10
38.84083278532696
 20
172.3672339326256
 10
39.26416504196212
 20
172.7905661892607
 10
39.26416504196212
 20
173.3197328557951
 10
39.26416773344297
 20
173.8488995223295
 10
38.84083278532696
 20
174.2722317789646
 10
38.31166611879258
 20
174.2722317789646
 10
38.31166611879258
 20
174.2722317789646
 10
38.31166611879258
 20
174.2722317789646
 10
38.31166611879258
 20
174.2722317789646
 97
        0
 97
        0
 92
        1
 93
        2
 72
     4
 94
        3
 73
     0
 74
     0
 95
       17
 96
       13
 40
0.0
 40
0.0
 40
0.0
 40
0.0
 40
0.3527777776895833
 40
0.3527777776895833
 40
0.3527777776895833
 40
0.7055555553791667
 40
0.7055555553791667
 40
0.7055555553791667
 40
1.05833333306875
 40
1.05833333306875
 40
1.05833333306875
 40
1.411111110758333
 40
1.411111110758333
 40
1.411111110758333
 40
1.411111110758333
 10
38.31166611879258
 20
174.1664000605463
 10
38.77027830638138
 20
174.1664000605463
 10
39.15833332354375
 20
173.7783450433839
 10
39.15833332354375
 20
173.3197328557951
 10
39.15833332354375
 20
172.8611206682063
 10
38.77027830638138
 20
172.4730656510439
 10
38.31166611879258
 20
172.4730656510439
 10
37.85305393120378
 20
172.4730656510439
 10
37.46499891404141
 20
172.8611206682063
 10
37.46499891404141
 20
173.3197328557951
 10
37.46499891404141
 20
173.7783450433839
 10
37.85305662268463
 20
174.1664000605463
 10
38.31166611879258
 20
174.1664000605463
 97
        0
 72
     1
 10
38.31166611879258
 20
174.1664000605463
 11
38.31166611879258
 21
174.1664000605463
 97
        0
 75
     2
 76
     1
 98
        0
  0
ENDBLK
  5
A4
330
A1
100
AcDbEntity
  8
0
100
AcDbBlockEnd
  0
BLOCK
  5
AA
330
A8
100
AcDbEntity
  8
0
100
AcDbBlockBegin
  2
block 13
 70
     0
 10
0.0
 20
0.0
 30
0.0
  3
block 13
  1

  0
POLYLINE
  5
AC
330
A8
100
AcDbEntity
  8
Layer 1
370
     0
100
AcDb2dPolyline
 66
     1
 10
0.0
 20
0.0
 30
0.0
  0
VERTEX
  5
AD
330
AC
100
AcDbEntity
  8
Layer 1
370
     0
100
AcDbVertex
100
AcDb2dVertex
 10
66.11055338584325
 20
199.9191767542422
 30
0.0
  0
VERTEX
  5
AE
330
AC
100
AcDbEntity
  8
Layer 1
370
     0
100
AcDbVertex
100
AcDb2dVertex
 10
66.11055338584325
 20
195.1566768237712
 30
0.0
  0
VERTEX
  5
AF
330
AC
100
AcDbEntity
  8
Layer 1
370
     0
100
AcDbVertex
100
AcDb2dVertex
 10
40.67527615272045
 20
195.1566768237712
 30
0.0
  0
VERTEX
  5
B0
330
AC
100
AcDbEntity
  8
Layer 1
370
     0
100
AcDbVertex
100
AcDb2dVertex
 10
40.67527615272045
 20
199.9191767542422
 30
0.0
  0
VERTEX
  5
B1
330
AC
100
AcDbEntity
  8
Layer 1
370
     0
100
AcDbVertex
100
AcDb2dVertex
 10
66.11055338584325
 20
199.9191767542422
 30
0.0
  0
SEQEND
  5
B2
330
AC
100
AcDbEntity
  8
Layer 1
370
     0
  0
POLYLINE
  5
B3
330
A8
100
AcDbEntity
  8
Layer 1
370
     0
100
AcDb2dPolyline
 66
     1
 10
0.0
 20
0.0
 30
0.0
  0
VERTEX
  5
B4
330
B3
100
AcDbEntity
  8
Layer 1
370
     0
100
AcDbVertex
100
AcDb2dVertex
 10
66.21638779574245
 20
199.9897323108314
 30
0.0
  0
VERTEX
  5
B5
330
B3
100
AcDbEntity
  8
Layer 1
370
     0
100
AcDbVertex
100
AcDb2dVertex
 10
40.60472167377488
 20
199.9897323108314
 30
0.0
  0
VERTEX
  5
B6
330
B3
100
AcDbEntity
  8
Layer 1
370
     0
100
AcDbVertex
100
AcDb2dVertex
 10
40.60472167377488
 20
195.0508434231773
 30
0.0
  0
VERTEX
  5
B7
330
B3
100
AcDbEntity
  8
Layer 1
370
     0
100
AcDbVertex
100
AcDb2dVertex
 10
66.21638779574245
 20
195.0508434231773
 30
0.0
  0
VERTEX
  5
B8
330
B3
100
AcDbEntity
  8
Layer 1
370
     0
100
AcDbVertex
100
AcDb2dVertex
 10
66.21638779574245
 20
199.9897323108314
 30
0.0
  0
VERTEX
  5
B9
330
B3
100
AcDbEntity
  8
Layer 1
370
     0
100
AcDbVertex
100
AcDb2dVertex
 10
66.21638779574245
 20
199.9897323108314
 30
0.0
  0
SEQEND
  5
BA
330
B3
100
AcDbEntity
  8
Layer 1
370
     0
  0
HATCH
  5
BB
330
A8
100
AcDbEntity
  8
Layer 1
 62
     7
420
 16777215
100
AcDbHatch
 10
0.0
 20
0.0
 30
0.0
210
0.0
220
0.0
230
1.0
  2
SOLID
 70
     1
 71
     0
 91
        2
 92
        1
 93
        4
 72
     1
 10
66.21638779574245
 20
199.9897323108314
 11
40.60472167377488
 21
199.9897323108314
 72
     1
 10
40.60472167377488
 20
199.9897323108314
 11
40.60472167377488
 21
195.0508434231773
 72
     1
 10
40.60472167377488
 20
195.0508434231773
 11
66.21638779574245
 21
195.0508434231773
 72
     1
 10
66.21638779574245
 20
195.0508434231773
 11
66.21638779574245
 21
199.9897323108314
 97
        0
 92
        1
 93
        4
 72
     1
 10
66.11055338584325
 20
199.9191767542422
 11
66.11055338584325
 21
195.1566768237712
 72
     1
 10
66.11055338584325
 20
195.1566768237712
 11
40.67527615272046
 21
195.1566768237712
 72
     1
 10
40.67527615272045
 20
195.1566768237712
 11
40.67527615272045
 21
199.9191767542422
 72
     1
 10
40.67527615272045
 20
199.9191767542422
 11
66.11055338584325
 21
199.9191767542422
 97
        0
 75
     2
 76
     1
 98
        0
  0
ENDBLK
  5
AB
330
A8
100
AcDbEntity
  8
0
100
AcDbBlockEnd
  0
BLOCK
  5
BE
330
BC
100
AcDbEntity
  8
0
100
AcDbBlockBegin
  2
block 14
 70
     0
 10
0.0
 20
0.0
 30
0.0
  3
block 14
  1

  0
SPLINE
  5
C0
330
BC
100
AcDbEntity
  8
Layer 1
370
     0
100
AcDbSpline
210
0.0
220
0.0
230
1.0
 70
    11
 71
     3
 72
    17
 73
    13
 74
     0
 42
0.0000000001
 43
0.0000000001
 12
1.0
 22
0.0
 32
0.0
 13
1.0
 23
0.0
 33
0.0
 40
0.0
 40
0.0
 40
0.0
 40
0.0
 40
1.0
 40
1.0
 40
1.0
 40
2.0
 40
2.0
 40
2.0
 40
3.0
 40
3.0
 40
3.0
 40
4.0
 40
4.0
 40
4.0
 40
4.0
 10
87.84167202766795
 20
199.8133391114118
 30
0.0
 10
97.01389424759712
 20
199.8133391114118
 30
0.0
 10
104.457507510032
 20
192.3697258489769
 30
0.0
 10
104.457507510032
 20
183.1975036290478
 30
0.0
 10
104.457507510032
 20
174.0252814091186
 30
0.0
 10
97.01389424759712
 20
166.5816681466837
 30
0.0
 10
87.84167202766795
 20
166.5816681466837
 30
0.0
 10
78.66944980773879
 20
166.5816681466837
 30
0.0
 10
71.22583654530389
 20
174.025292175042
 30
0.0
 10
71.22583654530389
 20
183.1975143949712
 30
0.0
 10
71.22583654530389
 20
192.3697366149003
 30
0.0
 10
78.70472435573072
 20
199.8133391114118
 30
0.0
 10
87.84167202766795
 20
199.8133391114118
 30
0.0
  0
SPLINE
  5
C1
330
BC
100
AcDbEntity
  8
Layer 1
370
     0
100
AcDbSpline
210
0.0
220
0.0
230
1.0
 70
    11
 71
     3
 72
    20
 73
    16
 74
     0
 42
0.0000000001
 43
0.0000000001
 12
1.0
 22
0.0
 32
0.0
 13
1.0
 23
0.0
 33
0.0
 40
0.0
 40
0.0
 40
0.0
 40
0.0
 40
1.0
 40
1.0
 40
1.0
 40
2.0
 40
2.0
 40
2.0
 40
3.0
 40
3.0
 40
3.0
 40
4.0
 40
4.0
 40
4.0
 40
5.0
 40
5.0
 40
5.0
 40
5.0
 10
87.84167202766795
 20
199.8838989733191
 30
0.0
 10
78.634172568266
 20
199.8838989733191
 30
0.0
 10
71.15528206635832
 20
192.4050057799306
 30
0.0
 10
71.15528206635832
 20
183.1975143949712
 30
0.0
 10
71.15528206635832
 20
173.9900230100118
 30
0.0
 10
78.63416987678515
 20
166.5111298166233
 30
0.0
 10
87.84167202766795
 20
166.5111298166233
 30
0.0
 10
97.04917417855076
 20
166.5111298166233
 30
0.0
 10
104.5280619889776
 20
173.9900230100118
 30
0.0
 10
104.5280619889776
 20
183.1975143949712
 30
0.0
 10
104.5280619889776
 20
192.4050057799306
 30
0.0
 10
97.08444872654269
 20
199.8838989733191
 30
0.0
 10
87.84167202766795
 20
199.8838989733191
 30
0.0
 10
87.84167202766795
 20
199.8838989733191
 30
0.0
 10
87.84167202766795
 20
199.8838989733191
 30
0.0
 10
87.84167202766795
 20
199.8838989733191
 30
0.0
  0
HATCH
  5
C2
330
BC
100
AcDbEntity
  8
Layer 1
 62
     7
420
 16777215
100
AcDbHatch
 10
0.0
 20
0.0
 30
0.0
210
0.0
220
0.0
230
1.0
  2
SOLID
 70
     1
 71
     0
 91
        2
 92
        1
 93
        1
 72
     4
 94
        3
 73
     0
 74
     1
 95
       20
 96
       16
 40
0.0
 40
0.0
 40
0.0
 40
0.0
 40
1.0
 40
1.0
 40
1.0
 40
2.0
 40
2.0
 40
2.0
 40
3.0
 40
3.0
 40
3.0
 40
4.0
 40
4.0
 40
4.0
 40
5.0
 40
5.0
 40
5.0
 40
5.0
 10
87.84167202766795
 20
199.8838989733191
 10
78.634172568266
 20
199.8838989733191
 10
71.15528206635832
 20
192.4050057799306
 10
71.15528206635832
 20
183.1975143949712
 10
71.15528206635832
 20
173.9900230100118
 10
78.63416987678515
 20
166.5111298166233
 10
87.84167202766795
 20
166.5111298166233
 10
97.04917417855076
 20
166.5111298166233
 10
104.5280619889776
 20
173.9900230100118
 10
104.5280619889776
 20
183.1975143949712
 10
104.5280619889776
 20
192.4050057799306
 10
97.08444872654269
 20
199.8838989733191
 10
87.84167202766795
 20
199.8838989733191
 10
87.84167202766795
 20
199.8838989733191
 10
87.84167202766795
 20
199.8838989733191
 10
87.84167202766795
 20
199.8838989733191
 97
        0
 97
        0
 92
        1
 93
        2
 72
     4
 94
        3
 73
     0
 74
     0
 95
       17
 96
       13
 40
0.0
 40
0.0
 40
0.0
 40
0.0
 40
0.3527777776895833
 40
0.3527777776895833
 40
0.3527777776895833
 40
0.7055555553791667
 40
0.7055555553791667
 40
0.7055555553791667
 40
1.05833333306875
 40
1.05833333306875
 40
1.05833333306875
 40
1.411111110758333
 40
1.411111110758333
 40
1.411111110758333
 40
1.411111110758333
 10
87.84167202766795
 20
199.8133391114118
 10
97.01389424759712
 20
199.8133391114118
 10
104.457507510032
 20
192.3697258489769
 10
104.457507510032
 20
183.1975036290478
 10
104.457507510032
 20
174.0252814091186
 10
97.01389424759712
 20
166.5816681466837
 10
87.84167202766795
 20
166.5816681466837
 10
78.66944980773879
 20
166.5816681466837
 10
71.22583654530389
 20
174.025292175042
 10
71.22583654530389
 20
183.1975143949712
 10
71.22583654530389
 20
192.3697366149003
 10
78.70472435573072
 20
199.8133391114118
 10
87.84167202766795
 20
199.8133391114118
 97
        0
 72
     1
 10
87.84167202766795
 20
199.8133391114118
 11
87.84167202766795
 21
199.8133391114118
 97
        0
 75
     2
 76
     1
 98
        0
  0
ENDBLK
  5
BF
330
BC
100
AcDbEntity
  8
0
100
AcDbBlockEnd
  0
ENDSEC
  0
SECTION
  2
ENTITIES
  0
INSERT
  5
42
330
1F
100
AcDbEntity
  8
Layer 1
100
AcDbBlockReference
  2
block 2
 10
0.0
 20
0.0
 30
0.0
  0
INSERT
  5
56
330
1F
100
AcDbEntity
  8
Layer 1
100
AcDbBlockReference
  2
block 3
 10
0.0
 20
0.0
 30
0.0
  0
INSERT
  5
5D
330
1F
100
AcDbEntity
  8
Layer 1
100
AcDbBlockReference
  2
block 4
 10
0.0
 20
0.0
 30
0.0
  0
INSERT
  5
64
330
1F
100
AcDbEntity
  8
Layer 1
100
AcDbBlockReference
  2
block 5
 10
0.0
 20
0.0
 30
0.0
  0
INSERT
  5
6B
330
1F
100
AcDbEntity
  8
Layer 1
100
AcDbBlockReference
  2
block 6
 10
0.0
 20
0.0
 30
0.0
  0
INSERT
  5
72
330
1F
100
AcDbEntity
  8
Layer 1
100
AcDbBlockReference
  2
block 7
 10
0.0
 20
0.0
 30
0.0
  0
INSERT
  5
79
330
1F
100
AcDbEntity
  8
Layer 1
100
AcDbBlockReference
  2
block 8
 10
0.0
 20
0.0
 30
0.0
  0
INSERT
  5
8D
330
1F
100
AcDbEntity
  8
Layer 1
100
AcDbBlockReference
  2
block 9
 10
0.0
 20
0.0
 30
0.0
  0
INSERT
  5
94
330
1F
100
AcDbEntity
  8
Layer 1
100
AcDbBlockReference
  2
block 10
 10
0.0
 20
0.0
 30
0.0
  0
INSERT
  5
9B
330
1F
100
AcDbEntity
  8
Layer 1
100
AcDbBlockReference
  2
block 11
 10
0.0
 20
0.0
 30
0.0
  0
INSERT
  5
A2
330
1F
100
AcDbEntity
  8
Layer 1
100
AcDbBlockReference
  2
block 12
 10
0.0
 20
0.0
 30
0.0
  0
INSERT
  5
A9
330
1F
100
AcDbEntity
  8
Layer 1
100
AcDbBlockReference
  2
block 13
 10
0.0
 20
0.0
 30
0.0
  0
INSERT
  5
BD
330
1F
100
AcDbEntity
  8
Layer 1
100
AcDbBlockReference
  2
block 14
 10
0.0
 20
0.0
 30
0.0
  0
POLYLINE
  5
C3
330
1F
100
AcDbEntity
  8
Layer 1
 62
     7
420
 16777215
370
     9
100
AcDb2dPolyline
 66
     1
 10
0.0
 20
0.0
 30
0.0
  0
VERTEX
  5
C4
330
C3
100
AcDbEntity
  8
Layer 1
 62
     7
420
 16777215
370
     9
100
AcDbVertex
100
AcDb2dVertex
 10
51.89361325132239
 20
190.0413987108371
 30
0.0
  0
VERTEX
  5
C5
330
C3
100
AcDbEntity
  8
Layer 1
 62
     7
420
 16777215
370
     9
100
AcDbVertex
100
AcDb2dVertex
 10
54.85694443073021
 20
190.0413987108371
 30
0.0
  0
VERTEX
  5
C6
330
C3
100
AcDbEntity
  8
Layer 1
 62
     7
420
 16777215
370
     9
100
AcDbVertex
100
AcDb2dVertex
 10
54.85694443073021
 20
180.8691764909079
 30
0.0
  0
VERTEX
  5
C7
330
C3
100
AcDbEntity
  8
Layer 1
 62
     7
420
 16777215
370
     9
100
AcDbVertex
100
AcDb2dVertex
 10
51.89361325132239
 20
180.8691764909079
 30
0.0
  0
VERTEX
  5
C8
330
C3
100
AcDbEntity
  8
Layer 1
 62
     7
420
 16777215
370
     9
100
AcDbVertex
100
AcDb2dVertex
 10
51.89361325132239
 20
190.0413987108371
 30
0.0
  0
SEQEND
  5
C9
330
C3
100
AcDbEntity
  8
Layer 1
 62
     7
420
 16777215
370
     9
  0
POLYLINE
  5
CA
330
1F
100
AcDbEntity
  8
Layer 1
 62
     7
420
 16777215
370
     9
100
AcDb2dPolyline
 66
     1
 10
0.0
 20
0.0
 30
0.0
  0
VERTEX
  5
CB
330
CA
100
AcDbEntity
  8
Layer 1
 62
     7
420
 16777215
370
     9
100
AcDbVertex
100
AcDb2dVertex
 10
87.10083654133514
 20
190.8880656422347
 30
0.0
  0
VERTEX
  5
CC
330
CA
100
AcDbEntity
  8
Layer 1
 62
     7
420
 16777215
370
     9
100
AcDbVertex
100
AcDb2dVertex
 10
90.06416772074297
 20
190.8880656422347
 30
0.0
  0
VERTEX
  5
CD
330
CA
100
AcDbEntity
  8
Layer 1
 62
     7
420
 16777215
370
     9
100
AcDbVertex
100
AcDb2dVertex
 10
90.06416772074297
 20
175.3658434238931
 30
0.0
  0
VERTEX
  5
CE
330
CA
100
AcDbEntity
  8
Layer 1
 62
     7
420
 16777215
370
     9
100
AcDbVertex
100
AcDb2dVertex
 10
87.10083654133514
 20
175.3658434238931
 30
0.0
  0
VERTEX
  5
CF
330
CA
100
AcDbEntity
  8
Layer 1
 62
     7
420
 16777215
370
     9
100
AcDbVertex
100
AcDb2dVertex
 10
87.10083654133514
 20
190.8880656422347
 30
0.0
  0
SEQEND
  5
D0
330
CA
100
AcDbEntity
  8
Layer 1
 62
     7
420
 16777215
370
     9
  0
POLYLINE
  5
D1
330
1F
100
AcDbEntity
  8
Layer 1
 62
     7
420
 16777215
370
     9
100
AcDb2dPolyline
 66
     1
 10
0.0
 20
0.0
 30
0.0
  0
VERTEX
  5
D2
330
D1
100
AcDbEntity
  8
Layer 1
 62
     7
420
 16777215
370
     9
100
AcDbVertex
100
AcDb2dVertex
 10
80.82139102186822
 20
184.6086255057295
 30
0.0
  0
VERTEX
  5
D3
330
D1
100
AcDbEntity
  8
Layer 1
 62
     7
420
 16777215
370
     9
100
AcDbVertex
100
AcDb2dVertex
 10
96.34361324020989
 20
184.6086255057295
 30
0.0
  0
VERTEX
  5
D4
330
D1
100
AcDbEntity
  8
Layer 1
 62
     7
420
 16777215
370
     9
100
AcDbVertex
100
AcDb2dVertex
 10
96.34361324020989
 20
181.6452943263217
 30
0.0
  0
VERTEX
  5
D5
330
D1
100
AcDbEntity
  8
Layer 1
 62
     7
420
 16777215
370
     9
100
AcDbVertex
100
AcDb2dVertex
 10
80.82139102186822
 20
181.6452943263217
 30
0.0
  0
VERTEX
  5
D6
330
D1
100
AcDbEntity
  8
Layer 1
 62
     7
420
 16777215
370
     9
100
AcDbVertex
100
AcDb2dVertex
 10
80.82139102186822
 20
184.6086255057295
 30
0.0
  0
SEQEND
  5
D7
330
D1
100
AcDbEntity
  8
Layer 1
 62
     7
420
 16777215
370
     9
  0
POLYLINE
  5
D8
330
1F
100
AcDbEntity
  8
Layer 1
 62
     7
420
 16777215
370
     9
100
AcDb2dPolyline
 66
     1
 10
0.0
 20
0.0
 30
0.0
  0
VERTEX
  5
D9
330
D8
100
AcDbEntity
  8
Layer 1
 62
     7
420
 16777215
370
     9
100
AcDbVertex
100
AcDb2dVertex
 10
48.78916773106172
 20
186.9369545363168
 30
0.0
  0
VERTEX
  5
DA
330
D8
100
AcDbEntity
  8
Layer 1
 62
     7
420
 16777215
370
     9
100
AcDbVertex
100
AcDb2dVertex
 10
57.96138995099088
 20
186.9369545363168
 30
0.0
  0
VERTEX
  5
DB
330
D8
100
AcDbEntity
  8
Layer 1
 62
     7
420
 16777215
370
     9
100
AcDbVertex
100
AcDb2dVertex
 10
57.96138995099088
 20
183.9736206654282
 30
0.0
  0
VERTEX
  5
DC
330
D8
100
AcDbEntity
  8
Layer 1
 62
     7
420
 16777215
370
     9
100
AcDbVertex
100
AcDb2dVertex
 10
48.78916773106172
 20
183.9736206654282
 30
0.0
  0
VERTEX
  5
DD
330
D8
100
AcDbEntity
  8
Layer 1
 62
     7
420
 16777215
370
     9
100
AcDbVertex
100
AcDb2dVertex
 10
48.78916773106172
 20
186.9369545363168
 30
0.0
  0
SEQEND
  5
DE
330
D8
100
AcDbEntity
  8
Layer 1
 62
     7
420
 16777215
370
     9
  0
SPLINE
  5
DF
330
1F
100
AcDbEntity
  8
Layer 1
 62
     7
420
 16777215
370
     9
100
AcDbSpline
210
0.0
220
0.0
230
1.0
 70
     8
 71
     3
 72
   122
 73
   118
 74
     0
 42
0.0000000001
 43
0.0000000001
 12
1.0
 22
0.0
 32
0.0
 13
1.0
 23
0.0
 33
0.0
 40
0.0
 40
0.0
 40
0.0
 40
0.0
 40
1.0
 40
1.0
 40
1.0
 40
2.0
 40
2.0
 40
2.0
 40
3.0
 40
3.0
 40
3.0
 40
4.0
 40
4.0
 40
4.0
 40
5.0
 40
5.0
 40
5.0
 40
6.0
 40
6.0
 40
6.0
 40
7.0
 40
7.0
 40
7.0
 40
8.0
 40
8.0
 40
8.0
 40
9.0
 40
9.0
 40
9.0
 40
10.0
 40
10.0
 40
10.0
 40
11.0
 40
11.0
 40
11.0
 40
12.0
 40
12.0
 40
12.0
 40
13.0
 40
13.0
 40
13.0
 40
14.0
 40
14.0
 40
14.0
 40
15.0
 40
15.0
 40
15.0
 40
16.0
 40
16.0
 40
16.0
 40
17.0
 40
17.0
 40
17.0
 40
18.0
 40
18.0
 40
18.0
 40
19.0
 40
19.0
 40
19.0
 40
20.0
 40
20.0
 40
20.0
 40
21.0
 40
21.0
 40
21.0
 40
22.0
 40
22.0
 40
22.0
 40
23.0
 40
23.0
 40
23.0
 40
24.0
 40
24.0
 40
24.0
 40
25.0
 40
25.0
 40
25.0
 40
26.0
 40
26.0
 40
26.0
 40
27.0
 40
27.0
 40
27.0
 40
28.0
 40
28.0
 40
28.0
 40
29.0
 40
29.0
 40
29.0
 40
30.0
 40
30.0
 40
30.0
 40
31.0
 40
31.0
 40
31.0
 40
32.0
 40
32.0
 40
32.0
 40
33.0
 40
33.0
 40
33.0
 40
34.0
 40
34.0
 40
34.0
 40
35.0
 40
35.0
 40
35.0
 40
36.0
 40
36.0
 40
36.0
 40
37.0
 40
37.0
 40
37.0
 40
38.0
 40
38.0
 40
38.0
 40
39.0
 40
39.0
 40
39.0
 40
39.0
 10
45.95813090976802
 20
165.5938989860971
 30
0.0
 10
45.95813090976802
 20
164.5002857220747
 30
0.0
 10
42.39507320191854
 20
163.5830667298588
 30
0.0
 10
37.95007643280681
 20
163.5830667298588
 30
0.0
 10
37.95007643280681
 20
163.5830667298588
 30
0.0
 10
37.8442420229076
 20
163.5830667298588
 30
0.0
 10
37.8442420229076
 20
163.5830667298588
 30
0.0
 10
33.43451980178781
 20
163.5830667298588
 30
0.0
 10
29.83618754594639
 20
165.8055678058955
 30
0.0
 10
29.83618754594639
 20
168.5925100964585
 30
0.0
 10
29.83618754594639
 20
168.5925100964585
 30
0.0
 10
29.76563306700082
 20
168.5925100964585
 30
0.0
 10
29.76563306700082
 20
168.5925100964585
 30
0.0
 10
29.76563306700082
 20
168.5925100964585
 30
0.0
 10
28.77785421287765
 20
168.5925100964585
 30
0.0
 10
28.77785421287765
 20
168.5925100964585
 30
0.0
 10
28.77785421287765
 20
168.5925100964585
 30
0.0
 10
28.77785421287765
 20
168.5219556175129
 30
0.0
 10
28.77785421287765
 20
168.5219556175129
 30
0.0
 10
28.77785421287765
 20
168.5219556175129
 30
0.0
 10
28.77785421287765
 20
167.5341767633898
 30
0.0
 10
28.77785421287765
 20
167.5341767633898
 30
0.0
 10
28.77785421287765
 20
167.5341767633898
 30
0.0
 10
28.91896586224965
 20
167.5341767633898
 30
0.0
 10
28.91896586224965
 20
167.5341767633898
 30
0.0
 10
28.91896586224965
 20
167.5341767633898
 30
0.0
 10
25.95563199136098
 20
167.5341767633898
 30
0.0
 10
25.95563199136098
 20
167.5341767633898
 30
0.0
 10
25.95563199136098
 20
167.5341767633898
 30
0.0
 10
25.95563199136098
 20
161.1841767649773
 30
0.0
 10
25.95563199136098
 20
161.1841767649773
 30
0.0
 10
25.95563199136098
 20
161.1841767649773
 30
0.0
 10
37.95007643280681
 20
161.1841767649773
 30
0.0
 10
37.95007643280681
 20
161.1841767649773
 30
0.0
 10
37.95007643280681
 20
161.1841767649773
 30
0.0
 10
37.95007643280681
 20
161.1841767649773
 30
0.0
 10
37.95007643280681
 20
161.1841767649773
 30
0.0
 10
37.95007643280681
 20
161.1841767649773
 30
0.0
 10
37.95007643280681
 20
158.2208455855694
 30
0.0
 10
37.95007643280681
 20
158.2208455855694
 30
0.0
 10
37.95007643280681
 20
158.2208455855694
 30
0.0
 10
37.95007643280681
 20
158.3619545434606
 30
0.0
 10
37.95007643280681
 20
158.3619545434606
 30
0.0
 10
37.95007643280681
 20
158.3619545434606
 30
0.0
 10
25.95563199136098
 20
158.3619545434606
 30
0.0
 10
25.95563199136098
 20
158.3619545434606
 30
0.0
 10
25.95563199136098
 20
158.3619545434606
 30
0.0
 10
25.95563199136098
 20
152.0119545450481
 30
0.0
 10
25.95563199136098
 20
152.0119545450481
 30
0.0
 10
25.95563199136098
 20
152.0119545450481
 30
0.0
 10
28.91896586224965
 20
152.0119545450481
 30
0.0
 10
28.91896586224965
 20
152.0119545450481
 30
0.0
 10
28.91896586224965
 20
152.0119545450481
 30
0.0
 10
28.77785421287765
 20
152.0119545450481
 30
0.0
 10
28.77785421287765
 20
152.0119545450481
 30
0.0
 10
28.77785421287765
 20
152.0119545450481
 30
0.0
 10
28.77785421287765
 20
151.0241810738866
 30
0.0
 10
28.77785421287765
 20
151.0241810738866
 30
0.0
 10
28.77785421287765
 20
151.0241810738866
 30
0.0
 10
28.77785421287765
 20
150.9536212119793
 30
0.0
 10
28.77785421287765
 20
150.9536212119793
 30
0.0
 10
28.77785421287765
 20
150.9536212119793
 30
0.0
 10
29.76563306700082
 20
150.9536212119793
 30
0.0
 10
29.76563306700082
 20
150.9536212119793
 30
0.0
 10
29.76563306700082
 20
150.9536212119793
 30
0.0
 10
29.83618754594639
 20
150.9536212119793
 30
0.0
 10
29.83618754594639
 20
150.9536212119793
 30
0.0
 10
29.83618754594639
 20
153.7052889545504
 30
0.0
 10
33.39924256231502
 20
155.9630645785791
 30
0.0
 10
37.8442420229076
 20
155.9630645785791
 30
0.0
 10
37.8442420229076
 20
155.9630645785791
 30
0.0
 10
37.95007643280681
 20
155.9630645785791
 30
0.0
 10
37.95007643280681
 20
155.9630645785791
 30
0.0
 10
42.3597986539266
 20
155.9630645785791
 30
0.0
 10
45.95813090976802
 20
155.0811201343551
 30
0.0
 10
45.95813090976802
 20
153.9522323223408
 30
0.0
 10
45.95813090976802
 20
153.9522323223408
 30
0.0
 10
46.06396531966723
 20
154.1286212111856
 30
0.0
 10
46.06396531966723
 20
154.1286212111856
 30
0.0
 10
46.06396531966723
 20
154.1286212111856
 30
0.0
 10
47.0517441737904
 20
154.1286212111856
 30
0.0
 10
47.0517441737904
 20
154.1286212111856
 30
0.0
 10
47.0517441737904
 20
154.1286212111856
 30
0.0
 10
47.12229865273598
 20
154.1286212111856
 30
0.0
 10
47.12229865273598
 20
154.1286212111856
 30
0.0
 10
47.12229865273598
 20
154.1286212111856
 30
0.0
 10
47.12229865273598
 20
155.1164000653088
 30
0.0
 10
47.12229865273598
 20
155.1164000653088
 30
0.0
 10
47.12229865273598
 20
155.1164000653088
 30
0.0
 10
47.12229865273598
 20
155.1869545442543
 30
0.0
 10
47.12229865273598
 20
155.1869545442543
 30
0.0
 10
47.12229865273598
 20
155.1869545442543
 30
0.0
 10
50.0856298321438
 20
155.1869545442543
 30
0.0
 10
50.0856298321438
 20
155.1869545442543
 30
0.0
 10
50.0856298321438
 20
155.1869545442543
 30
0.0
 10
49.94452087425265
 20
155.1869545442543
 30
0.0
 10
49.94452087425265
 20
155.1869545442543
 30
0.0
 10
49.94452087425265
 20
155.1869545442543
 30
0.0
 10
49.94452087425265
 20
164.3591767641835
 30
0.0
 10
49.94452087425265
 20
164.3591767641835
 30
0.0
 10
49.94452087425265
 20
164.3591767641835
 30
0.0
 10
50.0856298321438
 20
164.3591767641835
 30
0.0
 10
50.0856298321438
 20
164.3591767641835
 30
0.0
 10
50.0856298321438
 20
164.3591767641835
 30
0.0
 10
47.12229865273598
 20
164.3591767641835
 30
0.0
 10
47.12229865273598
 20
164.3591767641835
 30
0.0
 10
47.12229865273598
 20
164.3591767641835
 30
0.0
 10
47.12229865273598
 20
164.4297312431291
 30
0.0
 10
47.12229865273598
 20
164.4297312431291
 30
0.0
 10
47.12229865273598
 20
164.4297312431291
 30
0.0
 10
47.12229865273598
 20
165.4175100972523
 30
0.0
 10
47.12229865273598
 20
165.4175100972523
 30
0.0
 10
47.12229865273598
 20
165.4175100972523
 30
0.0
 10
47.0517441737904
 20
165.4175100972523
 30
0.0
 10
47.0517441737904
 20
165.4175100972523
 30
0.0
 10
47.0517441737904
 20
165.4175100972523
 30
0.0
 10
46.06396531966723
 20
165.4175100972523
 30
0.0
 10
46.06396531966723
 20
165.4175100972523
 30
0.0
  0
SPLINE
  5
E0
330
1F
100
AcDbEntity
  8
Layer 1
 62
     7
420
 16777215
370
     9
100
AcDbSpline
210
0.0
220
0.0
230
1.0
 70
     8
 71
     3
 72
   128
 73
   124
 74
     0
 42
0.0000000001
 43
0.0000000001
 12
1.0
 22
0.0
 32
0.0
 13
1.0
 23
0.0
 33
0.0
 40
0.0
 40
0.0
 40
0.0
 40
0.0
 40
1.0
 40
1.0
 40
1.0
 40
2.0
 40
2.0
 40
2.0
 40
3.0
 40
3.0
 40
3.0
 40
4.0
 40
4.0
 40
4.0
 40
5.0
 40
5.0
 40
5.0
 40
6.0
 40
6.0
 40
6.0
 40
7.0
 40
7.0
 40
7.0
 40
8.0
 40
8.0
 40
8.0
 40
9.0
 40
9.0
 40
9.0
 40
10.0
 40
10.0
 40
10.0
 40
11.0
 40
11.0
 40
11.0
 40
12.0
 40
12.0
 40
12.0
 40
13.0
 40
13.0
 40
13.0
 40
14.0
 40
14.0
 40
14.0
 40
15.0
 40
15.0
 40
15.0
 40
16.0
 40
16.0
 40
16.0
 40
17.0
 40
17.0
 40
17.0
 40
18.0
 40
18.0
 40
18.0
 40
19.0
 40
19.0
 40
19.0
 40
20.0
 40
20.0
 40
20.0
 40
21.0
 40
21.0
 40
21.0
 40
22.0
 40
22.0
 40
22.0
 40
23.0
 40
23.0
 40
23.0
 40
24.0
 40
24.0
 40
24.0
 40
25.0
 40
25.0
 40
25.0
 40
26.0
 40
26.0
 40
26.0
 40
27.0
 40
27.0
 40
27.0
 40
28.0
 40
28.0
 40
28.0
 40
29.0
 40
29.0
 40
29.0
 40
30.0
 40
30.0
 40
30.0
 40
31.0
 40
31.0
 40
31.0
 40
32.0
 40
32.0
 40
32.0
 40
33.0
 40
33.0
 40
33.0
 40
34.0
 40
34.0
 40
34.0
 40
35.0
 40
35.0
 40
35.0
 40
36.0
 40
36.0
 40
36.0
 40
37.0
 40
37.0
 40
37.0
 40
38.0
 40
38.0
 40
38.0
 40
39.0
 40
39.0
 40
39.0
 40
40.0
 40
40.0
 40
40.0
 40
41.0
 40
41.0
 40
41.0
 40
41.0
 10
70.29978949590705
 20
154.1286212111856
 30
0.0
 10
70.29978949590705
 20
154.1286212111856
 30
0.0
 10
71.28756835003021
 20
154.1286212111856
 30
0.0
 10
71.28756835003021
 20
154.1286212111856
 30
0.0
 10
71.28756835003021
 20
154.1286212111856
 30
0.0
 10
71.3581228289758
 20
154.1286212111856
 30
0.0
 10
71.3581228289758
 20
154.1286212111856
 30
0.0
 10
71.3581228289758
 20
154.1286212111856
 30
0.0
 10
71.3581228289758
 20
155.1164000653088
 30
0.0
 10
71.3581228289758
 20
155.1164000653088
 30
0.0
 10
71.3581228289758
 20
155.1164000653088
 30
0.0
 10
71.3581228289758
 20
155.1869545442543
 30
0.0
 10
71.3581228289758
 20
155.1869545442543
 30
0.0
 10
71.3581228289758
 20
155.1869545442543
 30
0.0
 10
74.32145669986447
 20
155.1869545442543
 30
0.0
 10
74.32145669986447
 20
155.1869545442543
 30
0.0
 10
74.32145669986447
 20
155.1869545442543
 30
0.0
 10
74.18034505049246
 20
155.1869545442543
 30
0.0
 10
74.18034505049246
 20
155.1869545442543
 30
0.0
 10
74.18034505049246
 20
155.1869545442543
 30
0.0
 10
74.18034505049246
 20
158.1855656546158
 30
0.0
 10
74.18034505049246
 20
158.1855656546158
 30
0.0
 10
74.18034505049246
 20
158.1855656546158
 30
0.0
 10
74.18034505049246
 20
158.3619545434606
 30
0.0
 10
74.18034505049246
 20
158.3619545434606
 30
0.0
 10
74.18034505049246
 20
158.3619545434606
 30
0.0
 10
62.18590060904631
 20
158.3619545434606
 30
0.0
 10
62.18590060904631
 20
158.3619545434606
 30
0.0
 10
62.18590060904631
 20
158.3619545434606
 30
0.0
 10
62.18590060904631
 20
158.2208455855694
 30
0.0
 10
62.18590060904631
 20
158.2208455855694
 30
0.0
 10
62.18590060904631
 20
158.2208455855694
 30
0.0
 10
62.18590060904631
 20
161.1841767649773
 30
0.0
 10
62.18590060904631
 20
161.1841767649773
 30
0.0
 10
62.18590060904631
 20
161.1841767649773
 30
0.0
 10
62.18590060904631
 20
161.1841767649773
 30
0.0
 10
62.18590060904631
 20
161.1841767649773
 30
0.0
 10
62.18590060904631
 20
161.1841767649773
 30
0.0
 10
74.18034505049246
 20
161.1841767649773
 30
0.0
 10
74.18034505049246
 20
161.1841767649773
 30
0.0
 10
74.18034505049246
 20
161.1841767649773
 30
0.0
 10
74.18034505049246
 20
161.3605656538221
 30
0.0
 10
74.18034505049246
 20
161.3605656538221
 30
0.0
 10
74.18034505049246
 20
161.3605656538221
 30
0.0
 10
74.18034505049246
 20
164.3591767641835
 30
0.0
 10
74.18034505049246
 20
164.3591767641835
 30
0.0
 10
74.18034505049246
 20
164.3591767641835
 30
0.0
 10
74.32145669986447
 20
164.3591767641835
 30
0.0
 10
74.32145669986447
 20
164.3591767641835
 30
0.0
 10
74.32145669986447
 20
164.3591767641835
 30
0.0
 10
71.3581228289758
 20
164.3591767641835
 30
0.0
 10
71.3581228289758
 20
164.3591767641835
 30
0.0
 10
71.3581228289758
 20
164.3591767641835
 30
0.0
 10
71.3581228289758
 20
164.4297312431291
 30
0.0
 10
71.3581228289758
 20
164.4297312431291
 30
0.0
 10
71.3581228289758
 20
164.4297312431291
 30
0.0
 10
71.3581228289758
 20
165.4175100972523
 30
0.0
 10
71.3581228289758
 20
165.4175100972523
 30
0.0
 10
71.3581228289758
 20
165.4175100972523
 30
0.0
 10
71.28756835003021
 20
165.4175100972523
 30
0.0
 10
71.28756835003021
 20
165.4175100972523
 30
0.0
 10
71.28756835003021
 20
165.4175100972523
 30
0.0
 10
70.29978949590705
 20
165.4175100972523
 30
0.0
 10
70.29978949590705
 20
165.4175100972523
 30
0.0
 10
70.29978949590705
 20
165.4175100972523
 30
0.0
 10
70.19395508600783
 20
165.5938989860971
 30
0.0
 10
70.19395508600783
 20
165.5938989860971
 30
0.0
 10
70.19395508600783
 20
164.5002857220747
 30
0.0
 10
66.63090006963921
 20
163.5830667298588
 30
0.0
 10
62.18589926330588
 20
163.5830667298588
 30
0.0
 10
62.18589926330588
 20
163.5830667298588
 30
0.0
 10
62.08006619914709
 20
163.5830667298588
 30
0.0
 10
62.08006619914709
 20
163.5830667298588
 30
0.0
 10
57.6703439780273
 20
163.5830667298588
 30
0.0
 10
54.07201037644546
 20
165.8055678058955
 30
0.0
 10
54.07201037644546
 20
168.5925100964585
 30
0.0
 10
54.07201037644546
 20
168.5925100964585
 30
0.0
 10
54.00145455175947
 20
168.5925100964585
 30
0.0
 10
54.00145455175947
 20
168.5925100964585
 30
0.0
 10
54.00145455175947
 20
168.5925100964585
 30
0.0
 10
53.01367838911714
 20
168.5925100964585
 30
0.0
 10
53.01367838911714
 20
168.5925100964585
 30
0.0
 10
53.01367838911714
 20
168.5925100964585
 30
0.0
 10
53.01367838911714
 20
168.5219556175129
 30
0.0
 10
53.01367838911714
 20
168.5219556175129
 30
0.0
 10
53.01367838911714
 20
168.5219556175129
 30
0.0
 10
53.01367838911714
 20
167.5341767633898
 30
0.0
 10
53.01367838911714
 20
167.5341767633898
 30
0.0
 10
53.01367838911714
 20
167.5341767633898
 30
0.0
 10
53.15478936561893
 20
167.5341767633898
 30
0.0
 10
53.15478936561893
 20
167.5341767633898
 30
0.0
 10
53.15478936561893
 20
167.5341767633898
 30
0.0
 10
50.19145616760047
 20
167.5341767633898
 30
0.0
 10
50.19145616760047
 20
167.5341767633898
 30
0.0
 10
50.19145616760047
 20
167.5341767633898
 30
0.0
 10
50.19145616760047
 20
152.0119545450481
 30
0.0
 10
50.19145616760047
 20
152.0119545450481
 30
0.0
 10
50.19145616760047
 20
152.0119545450481
 30
0.0
 10
53.15478936561893
 20
152.0119545450481
 30
0.0
 10
53.15478936561893
 20
152.0119545450481
 30
0.0
 10
53.15478936561893
 20
152.0119545450481
 30
0.0
 10
53.01367838911714
 20
152.0119545450481
 30
0.0
 10
53.01367838911714
 20
152.0119545450481
 30
0.0
 10
53.01367838911714
 20
152.0119545450481
 30
0.0
 10
53.01367838911714
 20
151.0241810738866
 30
0.0
 10
53.01367838911714
 20
151.0241810738866
 30
0.0
 10
53.01367838911714
 20
151.0241810738866
 30
0.0
 10
53.01367838911714
 20
150.9536212119793
 30
0.0
 10
53.01367838911714
 20
150.9536212119793
 30
0.0
 10
53.01367838911714
 20
150.9536212119793
 30
0.0
 10
54.00145589749989
 20
150.9536212119793
 30
0.0
 10
54.00145589749989
 20
150.9536212119793
 30
0.0
 10
54.00145589749989
 20
150.9536212119793
 30
0.0
 10
54.07201172218589
 20
150.9536212119793
 30
0.0
 10
54.07201172218589
 20
150.9536212119793
 30
0.0
 10
54.07201172218589
 20
153.7052889545504
 30
0.0
 10
57.63506673855451
 20
155.9630645785791
 30
0.0
 10
62.08006754488751
 20
155.9630645785791
 30
0.0
 10
62.08006754488751
 20
155.9630645785791
 30
0.0
 10
62.18590060904631
 20
155.9630645785791
 30
0.0
 10
62.18590060904631
 20
155.9630645785791
 30
0.0
 10
66.59562283016642
 20
155.9630645785791
 30
0.0
 10
70.19395508600783
 20
155.0811201343551
 30
0.0
 10
70.19395508600783
 20
153.9522323223408
 30
0.0
  0
SPLINE
  5
E1
330
1F
100
AcDbEntity
  8
Layer 1
 62
     7
420
 16777215
370
     9
100
AcDbSpline
210
0.0
220
0.0
230
1.0
 70
    11
 71
     3
 72
    17
 73
    13
 74
     0
 42
0.0000000001
 43
0.0000000001
 12
1.0
 22
0.0
 32
0.0
 13
1.0
 23
0.0
 33
0.0
 40
0.0
 40
0.0
 40
0.0
 40
0.0
 40
1.0
 40
1.0
 40
1.0
 40
2.0
 40
2.0
 40
2.0
 40
3.0
 40
3.0
 40
3.0
 40
4.0
 40
4.0
 40
4.0
 40
4.0
 10
80.78611647387628
 20
193.7102878637514
 30
0.0
 10
82.1694353533997
 20
193.7102878637514
 30
0.0
 10
83.290840848657
 20
192.5888877514558
 30
0.0
 10
83.290840848657
 20
191.2055634889707
 30
0.0
 10
83.290840848657
 20
189.8222392264856
 30
0.0
 10
82.1694353533997
 20
188.70083911419
 30
0.0
 10
80.78611647387628
 20
188.70083911419
 30
0.0
 10
79.40279759435286
 20
188.70083911419
 30
0.0
 10
78.28139479057641
 20
189.8222392264856
 30
0.0
 10
78.28139479057641
 20
191.2055634889707
 30
0.0
 10
78.28139479057641
 20
192.5888877514558
 30
0.0
 10
79.40279759435286
 20
193.7102878637514
 30
0.0
 10
80.78611647387628
 20
193.7102878637514
 30
0.0
  0
SPLINE
  5
E2
330
1F
100
AcDbEntity
  8
Layer 1
 62
     7
420
 16777215
370
     9
100
AcDbSpline
210
0.0
220
0.0
230
1.0
 70
    11
 71
     3
 72
    17
 73
    13
 74
     0
 42
0.0000000001
 43
0.0000000001
 12
1.0
 22
0.0
 32
0.0
 13
1.0
 23
0.0
 33
0.0
 40
0.0
 40
0.0
 40
0.0
 40
0.0
 40
1.0
 40
1.0
 40
1.0
 40
2.0
 40
2.0
 40
2.0
 40
3.0
 40
3.0
 40
3.0
 40
4.0
 40
4.0
 40
4.0
 40
4.0
 10
96.30833869221794
 20
193.7102878637514
 30
0.0
 10
97.69165757174137
 20
193.7102878637514
 30
0.0
 10
98.81306306699867
 20
192.5888877514558
 30
0.0
 10
98.81306306699867
 20
191.2055634889707
 30
0.0
 10
98.81306306699867
 20
189.8222392264856
 30
0.0
 10
97.69165757174137
 20
188.70083911419
 30
0.0
 10
96.30833869221794
 20
188.70083911419
 30
0.0
 10
94.92501981269453
 20
188.70083911419
 30
0.0
 10
93.80361431743724
 20
189.8222392264856
 30
0.0
 10
93.80361431743724
 20
191.2055634889707
 30
0.0
 10
93.80361431743724
 20
192.5888877514558
 30
0.0
 10
94.92501981269453
 20
193.7102878637514
 30
0.0
 10
96.30833869221794
 20
193.7102878637514
 30
0.0
  0
SPLINE
  5
E3
330
1F
100
AcDbEntity
  8
Layer 1
 62
     7
420
 16777215
370
     9
100
AcDbSpline
210
0.0
220
0.0
230
1.0
 70
    11
 71
     3
 72
    17
 73
    13
 74
     0
 42
0.0000000001
 43
0.0000000001
 12
1.0
 22
0.0
 32
0.0
 13
1.0
 23
0.0
 33
0.0
 40
0.0
 40
0.0
 40
0.0
 40
0.0
 40
1.0
 40
1.0
 40
1.0
 40
2.0
 40
2.0
 40
2.0
 40
3.0
 40
3.0
 40
3.0
 40
4.0
 40
4.0
 40
4.0
 40
4.0
 10
80.78611647387628
 20
177.8352878677202
 30
0.0
 10
82.1694353533997
 20
177.8352878677202
 30
0.0
 10
83.290840848657
 20
176.7138877554245
 30
0.0
 10
83.290840848657
 20
175.3305634929394
 30
0.0
 10
83.290840848657
 20
173.9472392304543
 30
0.0
 10
82.1694353533997
 20
172.8258391181587
 30
0.0
 10
80.78611647387628
 20
172.8258391181587
 30
0.0
 10
79.40279759435286
 20
172.8258391181587
 30
0.0
 10
78.28139479057641
 20
173.9472392304543
 30
0.0
 10
78.28139479057641
 20
175.3305634929394
 30
0.0
 10
78.28139479057641
 20
176.7138877554245
 30
0.0
 10
79.40279759435286
 20
177.8352878677202
 30
0.0
 10
80.78611647387628
 20
177.8352878677202
 30
0.0
  0
SPLINE
  5
E4
330
1F
100
AcDbEntity
  8
Layer 1
 62
     7
420
 16777215
370
     9
100
AcDbSpline
210
0.0
220
0.0
230
1.0
 70
    11
 71
     3
 72
    17
 73
    13
 74
     0
 42
0.0000000001
 43
0.0000000001
 12
1.0
 22
0.0
 32
0.0
 13
1.0
 23
0.0
 33
0.0
 40
0.0
 40
0.0
 40
0.0
 40
0.0
 40
1.0
 40
1.0
 40
1.0
 40
2.0
 40
2.0
 40
2.0
 40
3.0
 40
3.0
 40
3.0
 40
4.0
 40
4.0
 40
4.0
 40
4.0
 10
96.30833869221794
 20
177.8352878677202
 30
0.0
 10
97.69165757174137
 20
177.8352878677202
 30
0.0
 10
98.81306306699867
 20
176.7138877554245
 30
0.0
 10
98.81306306699867
 20
175.3305634929394
 30
0.0
 10
98.81306306699867
 20
173.9472392304543
 30
0.0
 10
97.69165757174137
 20
172.8258391181587
 30
0.0
 10
96.30833869221794
 20
172.8258391181587
 30
0.0
 10
94.92501981269453
 20
172.8258391181587
 30
0.0
 10
93.80361431743724
 20
173.9472392304543
 30
0.0
 10
93.80361431743724
 20
175.3305634929394
 30
0.0
 10
93.80361431743724
 20
176.7138877554245
 30
0.0
 10
94.92501981269453
 20
177.8352878677202
 30
0.0
 10
96.30833869221794
 20
177.8352878677202
 30
0.0
  0
ENDSEC
  0
SECTION
  2
OBJECTS
  0
DICTIONARY
  5
C
330
0
100
AcDbDictionary
281
     1
  3
ACAD_GROUP
350
D
  3
ACAD_LAYOUT
350
1A
  3
ACAD_MATERIAL
350
3B
  3
ACAD_MLEADERSTYLE
350
E6
  3
ACAD_MLINESTYLE
350
17
  3
ACAD_PLOTSETTINGS
350
19
  3
ACAD_PLOTSTYLENAME
350
E
  3
ACAD_TABLESTYLE
350
E5
  3
ACAD_VISUALSTYLE
350
2A
  0
SUN
  5
3F
330
29
100
AcDbSun
 90
        1
290
     0
 63
     7
421
 16777215
 40
1.0
291
     1
 91
  2455826
 92
 54000000
292
     0
 70
     2
 71
   256
280
     1
  0
DICTIONARY
  5
D
102
{ACAD_REACTORS
330
C
102
}
330
C
100
AcDbDictionary
281
     1
  0
DICTIONARY
  5
1A
102
{ACAD_REACTORS
330
C
102
}
330
C
100
AcDbDictionary
281
     1
  3
Layout1
350
1E
  3
Layout2
350
26
  3
Model
350
22
  0
DICTIONARY
  5
3B
102
{ACAD_REACTORS
330
C
102
}
330
C
100
AcDbDictionary
281
     1
  3
ByBlock
350
3D
  3
ByLayer
350
3C
  3
Global
350
3E
  0
DICTIONARY
  5
E6
102
{ACAD_REACTORS
330
C
102
}
330
C
100
AcDbDictionary
281
     1
  0
DICTIONARY
  5
17
102
{ACAD_REACTORS
330
C
102
}
330
C
100
AcDbDictionary
281
     1
  3
Standard
350
18
  0
DICTIONARY
  5
19
102
{ACAD_REACTORS
330
C
102
}
330
C
100
AcDbDictionary
281
     1
  0
ACDBDICTIONARYWDFLT
  5
E
102
{ACAD_REACTORS
330
C
102
}
330
C
100
AcDbDictionary
281
     1
  3
Normal
350
F
100
AcDbDictionaryWithDefault
340
F
  0
DICTIONARY
  5
E5
102
{ACAD_REACTORS
330
C
102
}
330
C
100
AcDbDictionary
281
     1
  0
DICTIONARY
  5
2A
102
{ACAD_REACTORS
330
C
102
}
330
C
100
AcDbDictionary
281
     1
  3
2dWireframe
350
2F
  3
3D Hidden
350
31
  3
3dWireframe
350
30
  3
Basic
350
32
  3
Brighten
350
36
  3
ColorChange
350
3A
  3
Conceptual
350
34
  3
Dim
350
35
  3
Facepattern
350
39
  3
Flat
350
2B
  3
FlatWithEdges
350
2C
  3
Gouraud
350
2D
  3
GouraudWithEdges
350
2E
  3
Linepattern
350
38
  3
Realistic
350
33
  3
Thicken
350
37
  0
LAYOUT
  5
1E
102
{ACAD_REACTORS
330
1A
102
}
330
1A
100
AcDbPlotSettings
  1

  2
none_device
  4

  6

 40
0.0
 41
0.0
 42
0.0
 43
0.0
 44
0.0
 45
0.0
 46
0.0
 47
0.0
 48
0.0
 49
0.0
140
0.0
141
0.0
142
1.0
143
1.0
 70
   688
 72
     0
 73
     0
 74
     5
  7

 75
    16
 76
     0
 77
     2
 78
   300
147
1.0
148
0.0
149
0.0
100
AcDbLayout
  1
Layout1
 70
     1
 71
     1
 10
0.0
 20
0.0
 11
12.0
 21
9.0
 12
0.0
 22
0.0
 32
0.0
 14
1.000000000000000E+20
 24
1.000000000000000E+20
 34
1.000000000000000E+20
 15
-1.000000000000000E+20
 25
-1.000000000000000E+20
 35
-1.000000000000000E+20
146
0.0
 13
0.0
 23
0.0
 33
0.0
 16
1.0
 26
0.0
 36
0.0
 17
0.0
 27
1.0
 37
0.0
 76
     0
330
1B
  0
LAYOUT
  5
26
102
{ACAD_REACTORS
330
1A
102
}
330
1A
100
AcDbPlotSettings
  1

  2
none_device
  4

  6

 40
0.0
 41
0.0
 42
0.0
 43
0.0
 44
0.0
 45
0.0
 46
0.0
 47
0.0
 48
0.0
 49
0.0
140
0.0
141
0.0
142
1.0
143
1.0
 70
   688
 72
     0
 73
     0
 74
     5
  7

 75
    16
 76
     0
 77
     2
 78
   300
147
1.0
148
0.0
149
0.0
100
AcDbLayout
  1
Layout2
 70
     1
 71
     2
 10
0.0
 20
0.0
 11
0.0
 21
0.0
 12
0.0
 22
0.0
 32
0.0
 14
0.0
 24
0.0
 34
0.0
 15
0.0
 25
0.0
 35
0.0
146
0.0
 13
0.0
 23
0.0
 33
0.0
 16
1.0
 26
0.0
 36
0.0
 17
0.0
 27
1.0
 37
0.0
 76
     0
330
23
  0
LAYOUT
  5
22
102
{ACAD_REACTORS
330
1A
102
}
330
1A
100
AcDbPlotSettings
  1

  2
none_device
  4

  6

 40
0.0
 41
0.0
 42
0.0
 43
0.0
 44
0.0
 45
0.0
 46
0.0
 47
0.0
 48
0.0
 49
0.0
140
0.0
141
0.0
142
1.0
143
1.0
 70
  1712
 72
     0
 73
     0
 74
     0
  7

 75
     0
 76
     0
 77
     2
 78
   300
147
1.0
148
0.0
149
0.0
100
AcDbLayout
  1
Model
 70
     1
 71
     0
 10
0.0
 20
0.0
 11
12.0
 21
9.0
 12
0.0
 22
0.0
 32
0.0
 14
1.000000000000000E+20
 24
1.000000000000000E+20
 34
1.000000000000000E+20
 15
-1.000000000000000E+20
 25
-1.000000000000000E+20
 35
-1.000000000000000E+20
146
0.0
 13
0.0
 23
0.0
 33
0.0
 16
1.0
 26
0.0
 36
0.0
 17
0.0
 27
1.0
 37
0.0
 76
     0
330
1F
331
29
  0
MATERIAL
  5
3D
102
{ACAD_REACTORS
330
3B
102
}
330
3B
100
AcDbMaterial
  1
ByBlock
 72
     1
 94
      127
  0
MATERIAL
  5
3C
102
{ACAD_REACTORS
330
3B
102
}
330
3B
100
AcDbMaterial
  1
ByLayer
 72
     1
 94
      127
  0
MATERIAL
  5
3E
102
{ACAD_REACTORS
330
3B
102
}
330
3B
100
AcDbMaterial
  1
Global
 72
     1
 94
      127
  0
MLINESTYLE
  5
18
102
{ACAD_REACTORS
330
17
102
}
330
17
100
AcDbMlineStyle
  2
Standard
 70
     0
  3

 62
   256
 51
90.0
 52
90.0
 71
     2
 49
0.5
 62
   256
  6
BYLAYER
 49
-0.5
 62
   256
  6
BYLAYER
  0
ACDBPLACEHOLDER
  5
F
102
{ACAD_REACTORS
330
E
102
}
330
E
  0
VISUALSTYLE
  5
2F
102
{ACAD_REACTORS
330
2A
102
}
330
2A
100
AcDbVisualStyle
  2
2dWireframe
 70
     4
177
     2
291
     0
 71
     0
176
     1
 72
     2
176
     1
 73
     0
176
     1
 90
        0
176
     1
 40
-0.6
176
     1
 41
-30.0
176
     1
 62
     5
 63
     7
421
 16777215
176
     1
 74
     1
176
     1
 91
        4
176
     1
 64
     7
176
     1
 65
   257
176
     1
 75
     1
176
     1
175
     1
176
     1
 42
1.0
176
     1
 92
        0
176
     1
 66
   257
176
     1
 43
1.0
176
     1
 76
     1
176
     1
 77
     6
176
     1
 78
     2
176
     1
 67
     7
176
     1
 79
     5
176
     1
170
     0
176
     1
171
     0
176
     1
290
     0
176
     1
 93
        1
176
     1
 44
0.0
176
     1
173
     0
176
     1
  0
VISUALSTYLE
  5
31
102
{ACAD_REACTORS
330
2A
102
}
330
2A
100
AcDbVisualStyle
  2
3D Hidden
 70
     6
177
     2
291
     0
 71
     1
176
     1
 72
     2
176
     1
 73
     2
176
     1
 90
        0
176
     1
 40
-0.6
176
     1
 41
-30.0
176
     1
 62
     5
 63
     7
421
 16777215
176
     1
 74
     2
176
     1
 91
        2
176
     1
 64
     7
176
     1
 65
   257
176
     1
 75
     2
176
     1
175
     1
176
     1
 42
40.0
176
     1
 92
        0
176
     1
 66
   257
176
     1
 43
1.0
176
     1
 76
     1
176
     1
 77
     6
176
     1
 78
     2
176
     1
 67
     7
176
     1
 79
     3
176
     1
170
     0
176
     1
171
     0
176
     1
290
     0
176
     1
 93
        1
176
     1
 44
0.0
176
     1
173
     0
176
     1
  0
VISUALSTYLE
  5
30
102
{ACAD_REACTORS
330
2A
102
}
330
2A
100
AcDbVisualStyle
  2
3dWireframe
 70
     5
177
     2
291
     0
 71
     0
176
     1
 72
     2
176
     1
 73
     0
176
     1
 90
        0
176
     1
 40
-0.6
176
     1
 41
-30.0
176
     1
 62
     5
 63
     7
421
 16777215
176
     1
 74
     1
176
     1
 91
        4
176
     1
 64
     7
176
     1
 65
   257
176
     1
 75
     1
176
     1
175
     1
176
     1
 42
1.0
176
     1
 92
        0
176
     1
 66
   257
176
     1
 43
1.0
176
     1
 76
     1
176
     1
 77
     6
176
     1
 78
     2
176
     1
 67
     7
176
     1
 79
     5
176
     1
170
     0
176
     1
171
     0
176
     1
290
     0
176
     1
 93
        1
176
     1
 44
0.0
176
     1
173
     0
176
     1
  0
VISUALSTYLE
  5
32
102
{ACAD_REACTORS
330
2A
102
}
330
2A
100
AcDbVisualStyle
  2
Basic
 70
     7
177
     2
291
     1
 71
     1
176
     1
 72
     0
176
     1
 73
     1
176
     1
 90
        0
176
     1
 40
-0.6
176
     1
 41
-30.0
176
     1
 62
     5
 63
     7
421
 16777215
176
     1
 74
     0
176
     1
 91
        4
176
     1
 64
     7
176
     1
 65
   257
176
     1
 75
     1
176
     1
175
     1
176
     1
 42
1.0
176
     1
 92
        8
176
     1
 66
     7
176
     1
 43
1.0
176
     1
 76
     1
176
     1
 77
     6
176
     1
 78
     2
176
     1
 67
     7
176
     1
 79
     5
176
     1
170
     0
176
     1
171
     0
176
     1
290
     0
176
     1
 93
        1
176
     1
 44
0.0
176
     1
173
     0
176
     1
  0
VISUALSTYLE
  5
36
102
{ACAD_REACTORS
330
2A
102
}
330
2A
100
AcDbVisualStyle
  2
Brighten
 70
    12
177
     2
291
     1
 71
     2
176
     1
 72
     2
176
     1
 73
     0
176
     1
 90
        0
176
     1
 40
-0.6
176
     1
 41
-30.0
176
     1
 62
     5
 63
     7
421
 16777215
176
     1
 74
     1
176
     1
 91
        4
176
     1
 64
     7
176
     1
 65
   257
176
     1
 75
     1
176
     1
175
     1
176
     1
 42
1.0
176
     1
 92
        8
176
     1
 66
     7
176
     1
 43
1.0
176
     1
 76
     1
176
     1
 77
     6
176
     1
 78
     2
176
     1
 67
     7
176
     1
 79
     5
176
     1
170
     0
176
     1
171
     0
176
     1
290
     0
176
     1
 93
        1
176
     1
 44
50.0
176
     1
173
     0
176
     1
  0
VISUALSTYLE
  5
3A
102
{ACAD_REACTORS
330
2A
102
}
330
2A
100
AcDbVisualStyle
  2
ColorChange
 70
    16
177
     2
291
     1
 71
     2
176
     1
 72
     2
176
     1
 73
     3
176
     1
 90
        0
176
     1
 40
-0.6
176
     1
 41
-30.0
176
     1
 62
     5
 63
     8
421
  8421504
176
     1
 74
     1
176
     1
 91
        4
176
     1
 64
     7
176
     1
 65
   257
176
     1
 75
     1
176
     1
175
     1
176
     1
 42
1.0
176
     1
 92
        8
176
     1
 66
     8
424
  8421504
176
     1
 43
1.0
176
     1
 76
     1
176
     1
 77
     6
176
     1
 78
     2
176
     1
 67
     7
176
     1
 79
     5
176
     1
170
     0
176
     1
171
     0
176
     1
290
     0
176
     1
 93
        1
176
     1
 44
0.0
176
     1
173
     0
176
     1
  0
VISUALSTYLE
  5
34
102
{ACAD_REACTORS
330
2A
102
}
330
2A
100
AcDbVisualStyle
  2
Conceptual
 70
     9
177
     2
291
     0
 71
     3
176
     1
 72
     2
176
     1
 73
     0
176
     1
 90
        0
176
     1
 40
-0.6
176
     1
 41
-30.0
176
     1
 62
     5
 63
     7
421
 16777215
176
     1
 74
     2
176
     1
 91
        2
176
     1
 64
     7
176
     1
 65
   257
176
     1
 75
     1
176
     1
175
     1
176
     1
 42
40.0
176
     1
 92
        8
176
     1
 66
     7
176
     1
 43
1.0
176
     1
 76
     1
176
     1
 77
     6
176
     1
 78
     2
176
     1
 67
     7
176
     1
 79
     3
176
     1
170
     0
176
     1
171
     0
176
     1
290
     0
176
     1
 93
        1
176
     1
 44
0.0
176
     1
173
     0
176
     1
  0
VISUALSTYLE
  5
35
102
{ACAD_REACTORS
330
2A
102
}
330
2A
100
AcDbVisualStyle
  2
Dim
 70
    11
177
     2
291
     1
 71
     2
176
     1
 72
     2
176
     1
 73
     0
176
     1
 90
        0
176
     1
 40
-0.6
176
     1
 41
-30.0
176
     1
 62
     5
 63
     7
421
 16777215
176
     1
 74
     1
176
     1
 91
        4
176
     1
 64
     7
176
     1
 65
   257
176
     1
 75
     1
176
     1
175
     1
176
     1
 42
1.0
176
     1
 92
        8
176
     1
 66
     7
176
     1
 43
1.0
176
     1
 76
     1
176
     1
 77
     6
176
     1
 78
     2
176
     1
 67
     7
176
     1
 79
     5
176
     1
170
     0
176
     1
171
     0
176
     1
290
     0
176
     1
 93
        1
176
     1
 44
-50.0
176
     1
173
     0
176
     1
  0
VISUALSTYLE
  5
39
102
{ACAD_REACTORS
330
2A
102
}
330
2A
100
AcDbVisualStyle
  2
Facepattern
 70
    15
177
     2
291
     1
 71
     2
176
     1
 72
     2
176
     1
 73
     0
176
     1
 90
        0
176
     1
 40
-0.6
176
     1
 41
-30.0
176
     1
 62
     5
 63
     7
421
 16777215
176
     1
 74
     1
176
     1
 91
        4
176
     1
 64
     7
176
     1
 65
   257
176
     1
 75
     1
176
     1
175
     1
176
     1
 42
1.0
176
     1
 92
        8
176
     1
 66
     7
176
     1
 43
1.0
176
     1
 76
     1
176
     1
 77
     6
176
     1
 78
     2
176
     1
 67
     7
176
     1
 79
     5
176
     1
170
     0
176
     1
171
     0
176
     1
290
     0
176
     1
 93
        1
176
     1
 44
0.0
176
     1
173
     0
176
     1
  0
VISUALSTYLE
  5
2B
102
{ACAD_REACTORS
330
2A
102
}
330
2A
100
AcDbVisualStyle
  2
Flat
 70
     0
177
     2
291
     1
 71
     2
176
     1
 72
     1
176
     1
 73
     1
176
     1
 90
        2
176
     1
 40
-0.6
176
     1
 41
30.0
176
     1
 62
     5
 63
     7
421
 16777215
176
     1
 74
     0
176
     1
 91
        4
176
     1
 64
     7
176
     1
 65
   257
176
     1
 75
     1
176
     1
175
     1
176
     1
 42
1.0
176
     1
 92
        8
176
     1
 66
     7
176
     1
 43
1.0
176
     1
 76
     1
176
     1
 77
     6
176
     1
 78
     2
176
     1
 67
     7
176
     1
 79
     5
176
     1
170
     0
176
     1
171
     0
176
     1
290
     0
176
     1
 93
       13
176
     1
 44
0.0
176
     1
173
     0
176
     1
  0
VISUALSTYLE
  5
2C
102
{ACAD_REACTORS
330
2A
102
}
330
2A
100
AcDbVisualStyle
  2
FlatWithEdges
 70
     1
177
     2
291
     1
 71
     2
176
     1
 72
     1
176
     1
 73
     1
176
     1
 90
        2
176
     1
 40
-0.6
176
     1
 41
30.0
176
     1
 62
     5
 63
     7
421
 16777215
176
     1
 74
     1
176
     1
 91
        4
176
     1
 64
     7
176
     1
 65
   257
176
     1
 75
     1
176
     1
175
     1
176
     1
 42
1.0
176
     1
 92
        0
176
     1
 66
   257
176
     1
 43
1.0
176
     1
 76
     1
176
     1
 77
     6
176
     1
 78
     2
176
     1
 67
     7
176
     1
 79
     5
176
     1
170
     0
176
     1
171
     0
176
     1
290
     0
176
     1
 93
       13
176
     1
 44
0.0
176
     1
173
     0
176
     1
  0
VISUALSTYLE
  5
2D
102
{ACAD_REACTORS
330
2A
102
}
330
2A
100
AcDbVisualStyle
  2
Gouraud
 70
     2
177
     2
291
     1
 71
     2
176
     1
 72
     2
176
     1
 73
     1
176
     1
 90
        2
176
     1
 40
-0.6
176
     1
 41
30.0
176
     1
 62
     5
 63
     7
421
 16777215
176
     1
 74
     0
176
     1
 91
        4
176
     1
 64
     7
176
     1
 65
   257
176
     1
 75
     1
176
     1
175
     1
176
     1
 42
1.0
176
     1
 92
        0
176
     1
 66
     7
176
     1
 43
1.0
176
     1
 76
     1
176
     1
 77
     6
176
     1
 78
     2
176
     1
 67
     7
176
     1
 79
     5
176
     1
170
     0
176
     1
171
     0
176
     1
290
     0
176
     1
 93
       13
176
     1
 44
0.0
176
     1
173
     0
176
     1
  0
VISUALSTYLE
  5
2E
102
{ACAD_REACTORS
330
2A
102
}
330
2A
100
AcDbVisualStyle
  2
GouraudWithEdges
 70
     3
177
     2
291
     1
 71
     2
176
     1
 72
     2
176
     1
 73
     1
176
     1
 90
        2
176
     1
 40
-0.6
176
     1
 41
30.0
176
     1
 62
     5
 63
     7
421
 16777215
176
     1
 74
     1
176
     1
 91
        4
176
     1
 64
     7
176
     1
 65
   257
176
     1
 75
     1
176
     1
175
     1
176
     1
 42
1.0
176
     1
 92
        0
176
     1
 66
   257
176
     1
 43
1.0
176
     1
 76
     1
176
     1
 77
     6
176
     1
 78
     2
176
     1
 67
     7
176
     1
 79
     5
176
     1
170
     0
176
     1
171
     0
176
     1
290
     0
176
     1
 93
       13
176
     1
 44
0.0
176
     1
173
     0
176
     1
  0
VISUALSTYLE
  5
38
102
{ACAD_REACTORS
330
2A
102
}
330
2A
100
AcDbVisualStyle
  2
Linepattern
 70
    14
177
     2
291
     1
 71
     2
176
     1
 72
     2
176
     1
 73
     0
176
     1
 90
        0
176
     1
 40
-0.6
176
     1
 41
-30.0
176
     1
 62
     5
 63
     7
421
 16777215
176
     1
 74
     1
176
     1
 91
        4
176
     1
 64
     7
176
     1
 65
   257
176
     1
 75
     7
176
     1
175
     7
176
     1
 42
1.0
176
     1
 92
        8
176
     1
 66
     7
176
     1
 43
1.0
176
     1
 76
     1
176
     1
 77
     6
176
     1
 78
     2
176
     1
 67
     7
176
     1
 79
     5
176
     1
170
     0
176
     1
171
     0
176
     1
290
     0
176
     1
 93
        1
176
     1
 44
0.0
176
     1
173
     0
176
     1
  0
VISUALSTYLE
  5
33
102
{ACAD_REACTORS
330
2A
102
}
330
2A
100
AcDbVisualStyle
  2
Realistic
 70
     8
177
     2
291
     0
 71
     2
176
     1
 72
     2
176
     1
 73
     0
176
     1
 90
        0
176
     1
 40
-0.6
176
     1
 41
-30.0
176
     1
 62
     5
 63
     7
421
 16777215
176
     1
 74
     1
176
     1
 91
        0
176
     1
 64
     7
176
     1
 65
   257
176
     1
 75
     1
176
     1
175
     1
176
     1
 42
1.0
176
     1
 92
        8
176
     1
 66
     8
424
  7895160
176
     1
 43
1.0
176
     1
 76
     1
176
     1
 77
     6
176
     1
 78
     2
176
     1
 67
     7
176
     1
 79
     5
176
     1
170
     0
176
     1
171
     0
176
     1
290
     0
176
     1
 93
       13
176
     1
 44
0.0
176
     1
173
     0
176
     1
  0
VISUALSTYLE
  5
37
102
{ACAD_REACTORS
330
2A
102
}
330
2A
100
AcDbVisualStyle
  2
Thicken
 70
    13
177
     2
291
     1
 71
     2
176
     1
 72
     2
176
     1
 73
     0
176
     1
 90
        0
176
     1
 40
-0.6
176
     1
 41
-30.0
176
     1
 62
     5
 63
     7
421
 16777215
176
     1
 74
     1
176
     1
 91
        4
176
     1
 64
     7
176
     1
 65
   257
176
     1
 75
     1
176
     1
175
     1
176
     1
 42
1.0
176
     1
 92
       12
176
     1
 66
     7
176
     1
 43
1.0
176
     1
 76
     1
176
     1
 77
     6
176
     1
 78
     2
176
     1
 67
     7
176
     1
 79
     5
176
     1
170
     0
176
     1
171
     0
176
     1
290
     0
176
     1
 93
        1
176
     1
 44
0.0
176
     1
173
     0
176
     1
  0
ENDSEC
  0
EOF
