<?xml version="1.0" encoding="utf-8"?>
<!-- Generator: Adobe Illustrator 22.0.1, SVG Export Plug-In . SVG Version: 6.00 Build 0)  -->
<svg version="1.1" id="Layer_1" xmlns="http://www.w3.org/2000/svg" xmlns:xlink="http://www.w3.org/1999/xlink" x="0px" y="0px"
	 viewBox="0 0 362.8 566.9" style="enable-background:new 0 0 362.8 566.9;" xml:space="preserve">
<style type="text/css">
	.st0{fill:none;stroke:#000000;stroke-width:0.25;stroke-miterlimit:10;}
</style>
<g>
	<path d="M100.6,0.3v82.3H0.3V0.3H100.6 M100.8,0H0v82.8h100.8V0L100.8,0z"/>
</g>
<g>
	<path d="M7.6,4.2c1.8,0,3.3,1.5,3.3,3.3s-1.5,3.3-3.3,3.3S4.2,9.4,4.2,7.6S5.8,4.2,7.6,4.2 M7.6,4C5.6,4,4,5.6,4,7.6
		s1.6,3.6,3.6,3.6s3.6-1.6,3.6-3.6S9.6,4,7.6,4L7.6,4z"/>
</g>
<g>
	<path d="M93.6,4.2c1.8,0,3.3,1.5,3.3,3.3s-1.5,3.3-3.3,3.3s-3.3-1.5-3.3-3.3S91.8,4.2,93.6,4.2 M93.6,4c-2,0-3.6,1.6-3.6,3.6
		s1.6,3.6,3.6,3.6s3.6-1.6,3.6-3.6S95.6,4,93.6,4L93.6,4z"/>
</g>
<g>
	<path d="M93.6,72.2c1.8,0,3.3,1.5,3.3,3.3s-1.5,3.3-3.3,3.3s-3.3-1.5-3.3-3.3S91.8,72.2,93.6,72.2 M93.6,72c-2,0-3.6,1.6-3.6,3.6
		s1.6,3.6,3.6,3.6s3.6-1.6,3.6-3.6S95.6,72,93.6,72L93.6,72z"/>
</g>
<g>
	<path d="M7.6,72.2c1.8,0,3.3,1.5,3.3,3.3s-1.5,3.3-3.3,3.3s-3.3-1.5-3.3-3.3S5.8,72.2,7.6,72.2 M7.6,72c-2,0-3.6,1.6-3.6,3.6
		s1.6,3.6,3.6,3.6s3.6-1.6,3.6-3.6S9.6,72,7.6,72L7.6,72z"/>
</g>
<g>
	<path d="M33.1,90.2C51.2,90.2,66,105,66,123.1S51.2,156,33.1,156S0.2,141.2,0.2,123.1S15,90.2,33.1,90.2 M33.1,90
		C14.8,90,0,104.8,0,123.1s14.8,33.1,33.1,33.1s33.1-14.8,33.1-33.1S51.4,90,33.1,90L33.1,90z"/>
</g>
<g>
	<path d="M201.4,0.1v82.3H101.1V0.1H201.4 M201.7-0.2H100.9v82.8h100.8L201.7-0.2L201.7-0.2z"/>
</g>
<g>
	<path d="M108.6,5.2c1.3,0,2.3,1.1,2.3,2.4s-1,2.4-2.3,2.4s-2.3-1.1-2.3-2.4S107.3,5.2,108.6,5.2 M108.6,4.9c-1.4,0-2.6,1.2-2.6,2.7
		s1.1,2.7,2.6,2.7c1.4,0,2.6-1.2,2.6-2.7S110,4.9,108.6,4.9L108.6,4.9z"/>
</g>
<g>
	<path d="M194.6,5.2c1.3,0,2.4,1.1,2.4,2.4s-1.1,2.4-2.4,2.4c-1.3,0-2.4-1.1-2.4-2.4S193.3,5.2,194.6,5.2 M194.6,4.9
		c-1.5,0-2.7,1.2-2.7,2.7s1.2,2.7,2.7,2.7s2.7-1.2,2.7-2.7S196.1,4.9,194.6,4.9L194.6,4.9z"/>
</g>
<g>
	<path d="M194.6,73.2c1.3,0,2.4,1.1,2.4,2.4s-1.1,2.4-2.4,2.4c-1.3,0-2.4-1.1-2.4-2.4S193.3,73.2,194.6,73.2 M194.6,72.9
		c-1.5,0-2.7,1.2-2.7,2.7s1.2,2.7,2.7,2.7s2.7-1.2,2.7-2.7S196.1,72.9,194.6,72.9L194.6,72.9z"/>
</g>
<g>
	<path d="M108.6,73.2c1.3,0,2.4,1.1,2.4,2.4s-1.1,2.4-2.4,2.4s-2.4-1.1-2.4-2.4S107.3,73.2,108.6,73.2 M108.6,72.9
		c-1.5,0-2.7,1.2-2.7,2.7s1.2,2.7,2.7,2.7s2.7-1.2,2.7-2.7C111.3,74.1,110.1,72.9,108.6,72.9L108.6,72.9z"/>
</g>
<g>
	<path d="M187.4,0.2v13.5h-72.1V0.2H187.4 M187.7,0h-72.6v14h72.6V0L187.7,0z"/>
</g>
<g>
	<path d="M127.8,90.2c28.6,0,51.9,23.3,51.9,51.9S156.4,194,127.8,194s-51.9-23.3-51.9-51.9S99.2,90.2,127.8,90.2 M127.8,90
		c-28.8,0-52.2,23.4-52.2,52.2s23.4,52.2,52.2,52.2S180,171,180,142.2S156.6,90,127.8,90L127.8,90z"/>
</g>
<g>
	<path d="M153.1,268.7c26,0,47.1,21.1,47.1,47.1s-21.1,47.1-47.1,47.1S106,341.8,106,315.8S127.2,268.7,153.1,268.7 M153.1,268.5
		c-26.1,0-47.3,21.2-47.3,47.3s21.2,47.3,47.3,47.3s47.3-21.2,47.3-47.3S179.3,268.5,153.1,268.5L153.1,268.5z"/>
</g>
<rect x="147.1" y="28.2" class="st0" width="8.4" height="26"/>
<rect x="151" y="294" class="st0" width="8.4" height="44"/>
<rect x="133.2" y="311.8" class="st0" width="44" height="8.4"/>
<rect x="138.3" y="37" class="st0" width="26" height="8.4"/>
<path class="st0" d="M161.7,217.5c0,3.1-10.1,5.7-22.7,5.7h-0.3c-12.5,0-22.7-6.3-22.7-14.2h-0.2H113v0.2v2.8h0.4H105v18h34l0,0v8.4
	V238h-34v18h8.4H113v2.8v0.2h2.8h0.2c0-7.8,10.1-14.2,22.7-14.2h0.3c12.5,0,22.7,2.5,22.7,5.7l0.3-0.5h2.8h0.2v-2.8V247h8.4H173v-26
	h0.4H165v-0.2V218h-0.2H162"/>
<path class="st0" d="M77,251h2.8H80v-2.8V248h8.4H88v-8.5V239H54v0.4V231l0,0h34v-0.5V222h0.4H80v-0.2V219h-0.2H77l-0.3-0.5
	c0,3.1-10.1,5.7-22.7,5.7h-0.3c-12.5,0-22.7-6.3-22.7-14.2h-0.2H28v0.2v2.8h0.4H20v44h8.4H28v2.8v0.2h2.8H31
	c0-7.8,10.1-14.2,22.7-14.2H54c12.5,0,22.7,2.5,22.7,5.7"/>
<circle class="st0" cx="133.1" cy="293.1" r="7.1"/>
<circle class="st0" cx="177.1" cy="293.1" r="7.1"/>
<circle class="st0" cx="133.1" cy="338.1" r="7.1"/>
<circle class="st0" cx="177.1" cy="338.1" r="7.1"/>
</svg>
