<?xml version="1.0" encoding="utf-8"?>
<!-- Generator: Adobe Illustrator 23.0.6, SVG Export Plug-In . SVG Version: 6.00 Build 0)  -->
<svg version="1.1" id="_x30_" xmlns="http://www.w3.org/2000/svg" xmlns:xlink="http://www.w3.org/1999/xlink" x="0px" y="0px"
	 viewBox="0 0 143.1 143.1" style="enable-background:new 0 0 143.1 143.1;" xml:space="preserve">
<style type="text/css">
	.st0{fill:none;stroke:#000000;stroke-width:0.7087;stroke-linecap:round;stroke-linejoin:round;stroke-miterlimit:10;}
	.st1{fill:none;stroke:#FF0000;stroke-width:0.7087;stroke-linecap:round;stroke-linejoin:round;stroke-miterlimit:10;}
</style>
<g id="SPLINE">
	<path class="st0" d="M142.7,124v-8.5V115h-34v-8h34v-0.5V98h-8v-0.2V95h-0.2h-2.8l-0.3-0.5c0,3.1-10.1,5.7-22.7,5.7h-0.3
		c-12.5,0-22.7-6.3-22.7-14.2h-0.2h-2.8v0.2V89h-8v44h8v2.8v0.2h2.8h0.2c0-7.8,10.1-14.2,22.7-14.2h0.3c12.5,0,22.7,2.5,22.7,5.7
		l0.3-0.5h2.8h0.2v-2.8V124H142.7"/>
</g>
<g id="SPLINE_1_">
	<path class="st0" d="M9,86.2V86h2.8H12c0,7.9,10.2,14.2,22.7,14.2H35c12.6,0,22.7-2.6,22.7-5.7L58,95h3v3h8v26h-8v0.2v2.8h-0.2H58
		l-0.3,0.5c0-3.2-10.2-5.7-22.7-5.7h-0.3c-12.6,0-22.7,6.4-22.7,14.2h-0.2H9v-3H1v-18h34v-8H1V89h8V86.2z"/>
</g>
<g>
	<path class="st0" d="M215.5,63.7c7.9,14.9,23.6,25.1,41.7,25.1c17.9,0,33.4-10,41.4-24.6l0.4-0.7c0-4.1-3.8-7.5-8.4-7.5
		c-2.4,0-4.4,3.4-4.4,7.6c0.1,0.8,0,1.7-0.2,2.5l0,0c-1,3.8-4.9,6-8.7,5c-3.8-1-6-4.9-5-8.7s4.9-6,8.7-5c0.7,0.2,1.4,0.5,2,0.9
		l0.7,0.5c0-3.7,2-6.6,4.6-6.6c7.2,0,13.1,2.8,13.1,6.2l0-0.2c1.9-5.1,3-10.7,3-16.5c0-5.6-1-11-2.8-16l-0.2-0.6
		c0,3.4-5.9,6.2-13.1,6.2c-2.5,0-4.6-3-4.6-6.6l-0.7,0.5c-0.6,0.4-1.3,0.7-2,0.9c-3.8,1-7.7-1.3-8.7-5s1.3-7.7,5-8.7
		c3.8-1,7.7,1.3,8.7,5l0,0c0.2,0.8,0.3,1.7,0.2,2.5c0,4.2,2,7.6,4.4,7.6c4.6,0,8.4-3.4,8.4-7.5l-0.1-0.2
		c-7.9-15-23.6-25.2-41.7-25.2c-18.2,0-34,10.3-41.8,25.4c0,4.1,3.8,7.5,8.4,7.5c2.4,0,4.4-3.4,4.4-7.6c-0.1-0.8,0-1.7,0.2-2.5l0,0
		c1-3.8,4.9-6,8.7-5s6,4.9,5,8.7c-1,3.8-4.9,6-8.7,5c-0.7-0.2-1.4-0.5-2-0.9l-0.7-0.5c0,3.7-2,6.6-4.6,6.6c-7.2,0-13.1-2.8-13.1-6.2
		l-0.1,0.3c-1.9,5.1-2.9,10.6-2.9,16.3l0,0c0,5.7,1,11.2,2.9,16.3l0.1,0.3c0-3.4,5.9-6.2,13.1-6.2c2.5,0,4.6,3,4.6,6.6l0.7-0.5
		c0.6-0.4,1.3-0.7,2-0.9c3.8-1,7.7,1.3,8.7,5c1,3.8-1.3,7.7-5,8.7s-7.7-1.3-8.7-5l0,0c-0.2-0.8-0.3-1.7-0.2-2.5c0-4.2-2-7.6-4.4-7.6
		c-4.6,0-8.4,3.4-8.4,7.5"/>
	<path class="st0" d="M286.2,63.6"/>
	<g>
		<g id="POLYLINE">
			<polyline class="st0" points="261.4,38.1 279.2,38.1 279.2,46.1 			"/>
		</g>
		<g id="POLYLINE_1_">
			<polyline class="st0" points="253,46.1 235.2,46.1 235.2,38.1 253,38.1 			"/>
		</g>
		<g id="POLYLINE_2_">
			<line class="st0" x1="279.2" y1="46.3" x2="261.4" y2="46.3"/>
		</g>
		<g id="POLYLINE_3_">
			<line class="st0" x1="261.4" y1="46.3" x2="261.4" y2="64.1"/>
		</g>
		<g id="POLYLINE_4_">
			<polyline class="st0" points="253.3,37.9 253.3,20.1 261.2,20.1 261.2,37.9 			"/>
		</g>
		<g id="POLYLINE_5_">
			<polyline class="st0" points="261.2,64.1 253.3,64.1 253.3,46.3 			"/>
		</g>
	</g>
	<path class="st0" d="M215.3,20"/>
	<path class="st0" d="M213,58"/>
	<path class="st0" d="M228.1,19.9"/>
</g>
<path class="st0" d="M6.5,14.2c0-1.6,1.3-2.8,2.8-2.8s2.8,1.3,2.8,2.8s-1.3,2.8-2.8,2.8S6.5,15.8,6.5,14.2L6.5,14.2z"/>
<path class="st0" d="M89.3,14.2c0-1.6,1.3-2.8,2.8-2.8c1.6,0,2.8,1.3,2.8,2.8s-1.3,2.8-2.8,2.8C90.6,17.1,89.3,15.8,89.3,14.2
	L89.3,14.2z"/>
<path class="st0" d="M6.5,68.4c0-1.6,1.3-2.8,2.8-2.8s2.8,1.3,2.8,2.8c0,1.6-1.3,2.8-2.8,2.8S6.5,70,6.5,68.4L6.5,68.4z"/>
<path class="st0" d="M89.3,68.4c0-1.6,1.3-2.8,2.8-2.8c1.6,0,2.8,1.3,2.8,2.8c0,1.6-1.3,2.8-2.8,2.8C90.6,71.2,89.3,70,89.3,68.4
	L89.3,68.4z"/>
<g>
	<path class="st0" d="M0.4,8.8c0-4.7,3.8-8.5,8.5-8.5h83.8c4.7,0,8.5,3.8,8.5,8.5v65.8c0,4.7-3.8,8.5-8.5,8.5H8.9
		c-4.7,0-8.5-3.8-8.5-8.5V8.8z"/>
</g>
<g id="POLYLINE_6_">
	<polyline class="st0" points="155.3,46.1 146.4,46.1 146.4,38.1 	"/>
</g>
<g id="POLYLINE_7_">
	<polyline class="st0" points="163.7,38.1 172.5,38.1 172.5,46.1 163.7,46.1 	"/>
</g>
<g id="POLYLINE_8_">
	<line class="st0" x1="146.4" y1="37.9" x2="155.3" y2="37.9"/>
</g>
<g id="POLYLINE_9_">
	<line class="st0" x1="163.7" y1="46.3" x2="163.7" y2="55.2"/>
</g>
<g id="POLYLINE_10_">
	<polyline class="st0" points="155.5,37.9 155.5,29 163.5,29 163.5,37.9 	"/>
</g>
<g id="POLYLINE_11_">
	<polyline class="st0" points="163.5,55.2 155.5,55.2 155.5,46.3 	"/>
</g>
<g id="LWPOLYLINE">
	<polyline class="st0" points="184.6,83.4 184.6,63.4 134.3,63.4 134.3,83.4 	"/>
</g>
<path class="st0" d="M115.9,14.4c0-1.3,1.1-2.4,2.4-2.4c1.3,0,2.4,1.1,2.4,2.4s-1.1,2.4-2.4,2.4C117,16.8,115.9,15.7,115.9,14.4
	L115.9,14.4z"/>
<path class="st0" d="M198.7,14.4c0-1.3,1.1-2.4,2.4-2.4c1.3,0,2.4,1.1,2.4,2.4s-1.1,2.4-2.4,2.4C199.8,16.8,198.7,15.7,198.7,14.4
	L198.7,14.4z"/>
<path class="st0" d="M115.9,68.5c0-1.3,1.1-2.4,2.4-2.4c1.3,0,2.4,1.1,2.4,2.4s-1.1,2.4-2.4,2.4C117,71,115.9,69.9,115.9,68.5
	L115.9,68.5z"/>
<path class="st0" d="M198.7,68.5c0-1.3,1.1-2.4,2.4-2.4c1.3,0,2.4,1.1,2.4,2.4s-1.1,2.4-2.4,2.4C199.8,71,198.7,69.9,198.7,68.5
	L198.7,68.5z"/>
<path class="st0" d="M134.3,83.4h-11.3c0,0-3.1,0-6.9,0c-3.8,0-6.9-3.8-6.9-8.5V58.7"/>
<path class="st0" d="M109,58.1c6,0,10.9-7.4,10.9-16.5S115,25.1,109,25.1h0.1V9.1c0-4.7,3.8-8.5,8.5-8.5h13.3
	c0,3.9,7.1,7.1,15.9,7.1c8.8,0,15.9-3.2,15.9-7.1h38.8c4.7,0,8.5,3.8,8.5,8.5v15.6l0.1,0.3c-6,0-10.9,7.4-10.9,16.5
	S204,58.1,210,58.1l-0.1,0.7v16.2c0,4.7-3.1,8.5-7,8.5c-3.8,0-7,0-7,0h0h-11.3"/>
<circle class="st0" cx="180.7" cy="117.7" r="32.4"/>
<circle class="st1" cx="50.7" cy="42.7" r="32.4"/>
</svg>
